<?xml version="1.0" encoding="utf-8"?>
<!-- Generator: Adobe Illustrator 27.2.0, SVG Export Plug-In . SVG Version: 6.00 Build 0)  -->
<svg version="1.1" id="Layer_1" xmlns="http://www.w3.org/2000/svg" xmlns:xlink="http://www.w3.org/1999/xlink" x="0px" y="0px"
	 viewBox="0 0 827.23 427.44" style="enable-background:new 0 0 827.23 427.44;" xml:space="preserve">
<style type="text/css">
	.st0{fill:#27AAE1;}
	.st1{fill:#8DC63F;}
	.st2{fill:#FFFFFF;}
	.st3{fill-rule:evenodd;clip-rule:evenodd;fill:#FFFFFF;}
</style>
<g>
	<path class="st0" d="M584.21,282.36c2.94-35.08,10.35-109.66,21.55-164.26c-78.46-35.3-115.71-46.18-115.71-46.18l-33.94,31.32
		l1.54-29.71l-80.31-43.65l-61.39,36.48l5.69,82.43l-50.49-13.57c-0.63-0.18-1.22-0.18-1.82-0.05l-0.15-0.22l-0.93,0.69
		c0,0-0.03,0.02-0.03,0.03c-0.04,0.02-0.04,0.02-0.05,0.04l-45.56,22.72c-0.88,0.63-1.37,1.58-1.37,2.66l15.1,121.7
		c-104.02,6.82-166.39,17.3-166.39,17.3s0,0.93,343.69,0.47c343.69-0.47,343.69-0.47,343.69-0.47S692.25,289.15,584.21,282.36z"/>
	<g>
		<g>
			<polygon class="st2" points="291.94,164.58 282.93,162.52 282.7,155.42 291.7,157.48 			"/>
			<polygon class="st2" points="305.18,167.29 296.15,165.23 295.92,158.15 304.94,160.2 			"/>
		</g>
		<g>
			<g>
				<polygon class="st2" points="292.62,185.06 283.61,182.99 283.37,175.91 292.38,177.98 				"/>
				<polygon class="st2" points="305.85,187.78 296.83,185.71 296.6,178.62 305.62,180.68 				"/>
			</g>
		</g>
		<g>
			<g>
				<polygon class="st2" points="293.29,205.55 284.29,203.48 284.05,196.38 293.06,198.46 				"/>
				<polygon class="st2" points="306.54,208.27 297.51,206.2 297.28,199.11 306.3,201.18 				"/>
			</g>
		</g>
		<g>
			<g>
				<polygon class="st2" points="293.97,226.03 284.96,223.96 284.73,216.89 293.74,218.96 				"/>
				<polygon class="st2" points="307.21,228.75 298.19,226.68 297.95,219.59 306.98,221.66 				"/>
			</g>
		</g>
		<g>
			<g>
				<polygon class="st2" points="294.65,246.52 285.64,244.45 285.41,237.37 294.42,239.42 				"/>
				<polygon class="st2" points="307.89,249.23 298.86,247.16 298.63,240.07 307.66,242.14 				"/>
			</g>
		</g>
		<g>
			<g>
				<polygon class="st2" points="295.33,267.02 286.32,264.94 286.08,257.85 295.1,259.92 				"/>
				<polygon class="st2" points="308.57,269.73 299.55,267.66 299.31,260.58 308.34,262.64 				"/>
			</g>
		</g>
		<g>
			<polygon class="st3" points="331.24,76.11 343.43,68.13 343.76,80.19 331.57,87.88 			"/>
			<polygon class="st3" points="332.22,111.05 344.41,103.9 344.74,115.96 332.55,122.86 			"/>
			<polygon class="st3" points="351.53,99.38 363.74,91.29 364.07,103.84 351.85,111.36 			"/>
			<polygon class="st3" points="350.61,65.46 362.83,56.67 363.15,69.13 350.93,77.43 			"/>
			<polygon class="st3" points="333.2,146.09 345.38,139.73 345.71,151.84 333.52,157.95 			"/>
			<polygon class="st3" points="352.5,135.65 364.71,128.43 365.04,141.04 352.82,147.73 			"/>
			<polygon class="st3" points="334.08,177.88 346.26,172.19 346.59,184.4 334.4,189.71 			"/>
			<polygon class="st3" points="353.38,168.6 365.6,162.14 365.92,174.73 353.7,180.73 			"/>
			<polygon class="st3" points="335.05,213.16 347.24,208.32 347.57,220.52 335.38,225.1 			"/>
			<polygon class="st3" points="354.36,205.2 366.57,199.5 366.9,212.13 354.68,217.35 			"/>
			<polygon class="st3" points="336.03,248.54 348.22,244.57 348.54,256.82 336.36,260.58 			"/>
			<polygon class="st3" points="355.33,241.9 367.55,237.02 367.88,249.76 355.65,254.09 			"/>
		</g>
		<g>
			<g>
				<polygon class="st3" points="419.29,71.81 406.88,63.82 406.88,76.2 419.29,83.93 				"/>
				<polygon class="st3" points="419.29,107.74 406.88,100.5 406.88,112.83 419.29,119.85 				"/>
				<polygon class="st3" points="399.63,95.97 387.18,87.94 387.18,100.73 399.63,108.2 				"/>
				<polygon class="st3" points="399.63,61.25 387.18,52.59 387.18,65.32 399.63,73.51 				"/>
				<polygon class="st3" points="419.29,143.64 406.88,137.11 406.88,149.45 419.29,155.76 				"/>
				<polygon class="st3" points="399.63,132.98 387.18,125.74 387.18,138.55 399.63,145.27 				"/>
				<polygon class="st3" points="419.29,176.09 406.88,170.16 406.88,182.56 419.29,188.14 				"/>
				<polygon class="st3" points="399.63,166.48 387.18,159.94 387.18,172.69 399.63,178.77 				"/>
				<polygon class="st3" points="419.29,211.98 406.88,206.81 406.88,219.17 419.29,224.09 				"/>
				<polygon class="st3" points="399.63,203.56 387.18,197.72 387.18,210.46 399.63,215.84 				"/>
				<polygon class="st3" points="419.29,247.84 406.88,243.45 406.88,255.81 419.29,260.01 				"/>
				<polygon class="st3" points="399.63,240.61 387.18,235.52 387.18,248.32 399.63,252.89 				"/>
			</g>
			<g>
				<polygon class="st3" points="438.69,82.44 426.27,74.89 426.27,86.88 438.69,94.18 				"/>
				<polygon class="st3" points="438.69,117.25 426.27,110.43 426.27,122.38 438.69,128.98 				"/>
				<polygon class="st3" points="438.69,152.02 426.27,145.9 426.27,157.86 438.69,163.76 				"/>
				<polygon class="st3" points="438.69,183.45 426.27,177.92 426.27,189.94 438.69,195.13 				"/>
				<polygon class="st3" points="438.69,218.22 426.27,213.44 426.27,225.41 438.69,229.95 				"/>
				<polygon class="st3" points="438.69,252.95 426.27,248.94 426.27,260.91 438.69,264.74 				"/>
			</g>
		</g>
		<g>
			<polygon class="st3" points="233.73,167.74 240.61,163.78 241.36,171.21 234.47,175.06 			"/>
			<polygon class="st3" points="235.94,189.47 242.84,185.86 243.59,193.31 236.68,196.82 			"/>
			<polygon class="st3" points="246.86,183.55 253.76,179.45 254.52,187.1 247.6,190.92 			"/>
			<polygon class="st3" points="244.77,162.71 251.65,158.34 252.41,165.93 245.51,170.06 			"/>
			<polygon class="st3" points="238.15,211.28 245.07,208 245.82,215.49 238.9,218.67 			"/>
			<polygon class="st3" points="249.1,205.87 256.01,202.12 256.78,209.82 249.84,213.31 			"/>
			<polygon class="st3" points="240.15,231.1 247.09,228.08 247.84,235.65 240.9,238.48 			"/>
			<polygon class="st3" points="251.13,226.17 258.06,222.71 258.82,230.4 251.88,233.64 			"/>
			<polygon class="st3" points="242.37,253.13 249.33,250.46 250.09,258.03 243.13,260.58 			"/>
			<polygon class="st3" points="253.38,248.72 260.32,245.55 261.09,253.28 254.13,256.22 			"/>
			<polygon class="st3" points="244.6,275.24 251.57,272.93 252.34,280.54 245.36,282.77 			"/>
			<polygon class="st3" points="255.63,271.38 262.59,268.51 263.36,276.3 256.39,278.9 			"/>
		</g>
		<g>
			<polygon class="st2" points="502.46,88.91 500.87,105.61 540.64,119.53 541.73,104.27 			"/>
			<polygon class="st2" points="591.53,137.35 593.51,124.54 550.76,107.81 549.63,122.68 			"/>
			<polygon class="st2" points="499.25,126.09 498.26,142.84 538.06,155.66 539.14,140.59 			"/>
			<polygon class="st2" points="587.19,171.48 588.68,158.61 548.04,143.83 546.93,158.52 			"/>
			<polygon class="st2" points="583.61,201.53 584.79,188.27 545.63,175.77 544.51,190.56 			"/>
			<polygon class="st2" points="496.87,160.2 496.02,176.96 535.74,188.1 536.83,172.95 			"/>
			<polygon class="st2" points="494.14,196.38 492.75,212.23 533.43,220.57 534.47,205.88 			"/>
			<polygon class="st2" points="581.43,230.42 582.32,217.14 543.2,207.93 542.11,222.36 			"/>
			<polygon class="st2" points="491.6,231.85 490.18,248.76 530.94,255.32 532.05,239.87 			"/>
			<polygon class="st2" points="579.25,263.1 580.3,249.44 540.66,241.58 539.51,256.7 			"/>
		</g>
		<g>
			<g>
				<polygon class="st3" points="453.12,120.65 481.6,96.92 481.54,109.19 453.06,130.07 				"/>
				<polygon class="st3" points="452.94,151.43 481.42,133.39 481.36,142.79 452.88,160.84 				"/>
				<polygon class="st3" points="452.59,184.63 481.07,166.54 481.01,175.98 452.53,194 				"/>
				<polygon class="st3" points="452.41,218.21 480.89,200.14 480.82,209.54 452.35,227.61 				"/>
				<polygon class="st3" points="452.23,251.75 480.71,236.57 480.64,245.98 452.16,261.21 				"/>
			</g>
		</g>
	</g>
	<g>
		<path class="st1" d="M178.66,403.56c-3.92-4.22-5.87-9.78-5.87-16.7v-56.31c0-0.38,0.13-0.7,0.4-0.97c0.27-0.27,0.59-0.4,0.97-0.4
			h10.49c0.38,0,0.7,0.13,0.97,0.4c0.26,0.27,0.4,0.59,0.4,0.97v57.68c0,3.04,0.76,5.51,2.28,7.41c1.52,1.9,3.53,2.85,6.04,2.85
			s4.52-0.95,6.04-2.85c1.52-1.9,2.28-4.37,2.28-7.41v-57.68c0-0.38,0.13-0.7,0.4-0.97c0.27-0.27,0.59-0.4,0.97-0.4h10.49
			c0.38,0,0.7,0.13,0.97,0.4c0.27,0.27,0.4,0.59,0.4,0.97v56.31c0,6.92-1.98,12.48-5.93,16.7c-3.95,4.22-9.16,6.33-15.62,6.33
			C187.79,409.89,182.57,407.78,178.66,403.56z"/>
		<path class="st1" d="M228.13,408.58c-0.27-0.27-0.4-0.59-0.4-0.97v-77.05c0-0.38,0.13-0.7,0.4-0.97c0.27-0.27,0.59-0.4,0.97-0.4
			h10.49c0.38,0,0.7,0.13,0.97,0.4c0.26,0.27,0.4,0.59,0.4,0.97v66.45c0,0.38,0.19,0.57,0.57,0.57h24.62c0.38,0,0.7,0.13,0.97,0.4
			c0.27,0.27,0.4,0.59,0.4,0.97v8.66c0,0.38-0.13,0.7-0.4,0.97c-0.27,0.27-0.59,0.4-0.97,0.4H229.1
			C228.71,408.98,228.39,408.85,228.13,408.58z"/>
		<path class="st1" d="M310.48,407.72l-2.17-11.97c0-0.38-0.23-0.57-0.68-0.57H291.1c-0.46,0-0.68,0.15-0.68,0.46l-2.28,12.08
			c-0.08,0.84-0.57,1.25-1.48,1.25h-10.49c-0.99,0-1.37-0.49-1.14-1.48l16.76-77.06c0.15-0.83,0.64-1.25,1.48-1.25h12.2
			c0.84,0,1.33,0.42,1.48,1.25l16.87,77.06v0.46c0,0.68-0.42,1.03-1.25,1.03h-10.6C311.05,408.98,310.55,408.56,310.48,407.72z
			 M293.27,384.81h12.42c0.46,0,0.64-0.19,0.57-0.57l-6.27-34.42c-0.08-0.23-0.19-0.34-0.34-0.34c-0.15,0-0.27,0.11-0.34,0.34
			l-6.61,34.42C292.62,384.62,292.81,384.81,293.27,384.81z"/>
		<path class="st1" d="M330.26,408.58c-0.27-0.27-0.4-0.59-0.4-0.97v-9.12c0-0.61,0.11-1.18,0.34-1.71l25.53-55.51
			c0.08-0.15,0.08-0.3,0-0.46c-0.08-0.15-0.19-0.23-0.34-0.23h-24.17c-0.38,0-0.7-0.13-0.97-0.4c-0.27-0.27-0.4-0.59-0.4-0.97v-8.66
			c0-0.38,0.13-0.7,0.4-0.97c0.27-0.27,0.59-0.4,0.97-0.4h37.39c0.38,0,0.7,0.13,0.97,0.4c0.27,0.27,0.4,0.59,0.4,0.97v9.12
			c0,0.53-0.11,1.1-0.34,1.71l-25.53,55.51c-0.08,0.15-0.08,0.3,0,0.46c0.07,0.15,0.19,0.23,0.34,0.23h24.17
			c0.38,0,0.7,0.13,0.97,0.4c0.27,0.27,0.4,0.59,0.4,0.97v8.66c0,0.38-0.13,0.7-0.4,0.97c-0.27,0.27-0.59,0.4-0.97,0.4h-37.39
			C330.84,408.98,330.52,408.85,330.26,408.58z"/>
		<path class="st1" d="M379.84,408.58c-0.27-0.27-0.4-0.59-0.4-0.97v-77.05c0-0.38,0.13-0.7,0.4-0.97c0.26-0.27,0.59-0.4,0.97-0.4
			h10.49c0.38,0,0.7,0.13,0.97,0.4c0.27,0.27,0.4,0.59,0.4,0.97v77.05c0,0.38-0.13,0.7-0.4,0.97c-0.27,0.27-0.59,0.4-0.97,0.4
			h-10.49C380.43,408.98,380.1,408.85,379.84,408.58z"/>
		<path class="st0" d="M465.1,403.28c-4.07,3.8-9.37,5.7-15.9,5.7h-20.06c-0.38,0-0.7-0.13-0.97-0.4c-0.27-0.27-0.4-0.59-0.4-0.97
			v-77.05c0-0.38,0.13-0.7,0.4-0.97c0.26-0.27,0.59-0.4,0.97-0.4h18.01c7.22,0,12.88,1.82,16.98,5.47s6.16,8.97,6.16,15.96
			c0,7.83-2.77,13.41-8.32,16.76c-0.38,0.23-0.46,0.46-0.23,0.68c2.96,1.9,5.28,4.45,6.95,7.64c1.67,3.19,2.51,6.99,2.51,11.4
			C471.2,394.08,469.16,399.48,465.1,403.28z M440.99,341.16v21.2c0,0.38,0.19,0.57,0.57,0.57h5.81c3.12,0,5.55-0.95,7.29-2.85
			c1.75-1.9,2.62-4.6,2.62-8.09c0-3.65-0.87-6.46-2.62-8.44c-1.75-1.98-4.18-2.96-7.29-2.96h-5.81
			C441.18,340.59,440.99,340.78,440.99,341.16z M455.35,394.27c1.75-2.13,2.62-5.13,2.62-9c0-3.95-0.87-7.05-2.62-9.29
			c-1.75-2.24-4.14-3.36-7.18-3.36h-6.61c-0.38,0-0.57,0.19-0.57,0.57v23.71c0,0.38,0.19,0.57,0.57,0.57h6.61
			C451.21,397.46,453.61,396.4,455.35,394.27z"/>
		<path class="st0" d="M485.05,403.96c-3.99-3.95-5.98-9.19-5.98-15.73v-38.3c0-6.53,2-11.78,5.98-15.73
			c3.99-3.95,9.25-5.93,15.79-5.93c6.54,0,11.82,1.98,15.84,5.93c4.03,3.95,6.04,9.2,6.04,15.73v38.3c0,6.54-2.01,11.78-6.04,15.73
			c-4.03,3.95-9.31,5.93-15.84,5.93C494.3,409.89,489.04,407.91,485.05,403.96z M507.1,395.81c1.6-1.78,2.39-4.12,2.39-7.01v-39.44
			c0-2.89-0.8-5.22-2.39-7.01c-1.6-1.78-3.69-2.68-6.27-2.68c-2.58,0-4.66,0.89-6.21,2.68c-1.56,1.79-2.34,4.12-2.34,7.01v39.44
			c0,2.89,0.78,5.23,2.34,7.01c1.56,1.79,3.63,2.68,6.21,2.68C503.42,398.49,505.51,397.6,507.1,395.81z"/>
		<path class="st0" d="M534.06,408.58c-0.27-0.27-0.4-0.59-0.4-0.97v-77.05c0-0.38,0.13-0.7,0.4-0.97c0.26-0.27,0.59-0.4,0.97-0.4
			h10.49c0.38,0,0.7,0.13,0.97,0.4c0.27,0.27,0.4,0.59,0.4,0.97v31.46c0,0.3,0.07,0.48,0.23,0.51c0.15,0.04,0.3-0.06,0.46-0.29
			l17.1-32.03c0.38-0.68,0.95-1.03,1.71-1.03h11.29c0.53,0,0.87,0.15,1.03,0.46c0.15,0.3,0.11,0.68-0.11,1.14l-17.1,32.03
			c-0.08,0.3-0.11,0.53-0.11,0.68l18.47,43.89c0.07,0.15,0.11,0.38,0.11,0.68c0,0.61-0.38,0.91-1.14,0.91h-11.28
			c-0.84,0-1.37-0.34-1.6-1.03l-13.45-32.94c-0.08-0.23-0.19-0.32-0.34-0.28c-0.15,0.04-0.3,0.13-0.46,0.28l-4.56,7.64
			c-0.15,0.3-0.23,0.53-0.23,0.68v24.28c0,0.38-0.13,0.7-0.4,0.97c-0.27,0.27-0.59,0.4-0.97,0.4h-10.49
			C534.65,408.98,534.33,408.85,534.06,408.58z"/>
		<path class="st0" d="M627.41,340.19c-0.27,0.27-0.59,0.4-0.97,0.4h-24.62c-0.38,0-0.57,0.19-0.57,0.57v21.54
			c0,0.38,0.19,0.57,0.57,0.57h14.59c0.38,0,0.7,0.13,0.97,0.4c0.27,0.27,0.4,0.59,0.4,0.97v8.78c0,0.38-0.13,0.7-0.4,0.97
			c-0.27,0.27-0.59,0.4-0.97,0.4h-14.59c-0.38,0-0.57,0.19-0.57,0.57v21.66c0,0.38,0.19,0.57,0.57,0.57h24.62
			c0.38,0,0.7,0.13,0.97,0.4c0.26,0.27,0.4,0.59,0.4,0.97v8.66c0,0.38-0.13,0.7-0.4,0.97c-0.27,0.27-0.59,0.4-0.97,0.4H589.4
			c-0.38,0-0.7-0.13-0.97-0.4c-0.27-0.27-0.4-0.59-0.4-0.97v-77.05c0-0.38,0.13-0.7,0.4-0.97c0.26-0.27,0.59-0.4,0.97-0.4h37.04
			c0.38,0,0.7,0.13,0.97,0.4c0.26,0.27,0.4,0.59,0.4,0.97v8.66C627.81,339.6,627.68,339.92,627.41,340.19z"/>
	</g>
</g>
</svg>
