<?xml version="1.0" encoding="utf-8"?>
<!-- Generator: Adobe Illustrator 27.2.0, SVG Export Plug-In . SVG Version: 6.00 Build 0)  -->
<svg version="1.1" id="Layer_1" xmlns="http://www.w3.org/2000/svg" xmlns:xlink="http://www.w3.org/1999/xlink" x="0px" y="0px"
	 viewBox="0 0 827.23 427.44" style="enable-background:new 0 0 827.23 427.44;" xml:space="preserve">
<style type="text/css">
	.st0{fill:#27AAE1;}
	.st1{fill:#8DC63F;}
	.st2{fill:#FFFFFF;}
	.st3{fill-rule:evenodd;clip-rule:evenodd;fill:#FFFFFF;}
</style>
<g>
	<path class="st0" d="M584.21,281.75c2.94-35.08,10.35-109.66,21.55-164.26C527.3,82.18,490.05,71.3,490.05,71.3l-33.94,31.32
		l1.54-29.71l-80.31-43.65l-61.39,36.48l5.69,82.43l-50.49-13.57c-0.63-0.18-1.22-0.18-1.82-0.05l-0.15-0.22l-0.93,0.69
		c0,0-0.03,0.02-0.03,0.03c-0.04,0.02-0.04,0.02-0.05,0.04l-45.56,22.72c-0.88,0.63-1.37,1.58-1.37,2.66l15.1,121.7
		C132.3,289,69.93,299.47,69.93,299.47s0,0.93,343.69,0.47c343.69-0.47,343.69-0.47,343.69-0.47S692.25,288.54,584.21,281.75z"/>
	<g>
		<g>
			<polygon class="st2" points="291.94,163.97 282.93,161.91 282.7,154.81 291.7,156.87 			"/>
			<polygon class="st2" points="305.18,166.68 296.15,164.62 295.92,157.54 304.94,159.6 			"/>
		</g>
		<g>
			<g>
				<polygon class="st2" points="292.62,184.45 283.61,182.38 283.37,175.3 292.38,177.37 				"/>
				<polygon class="st2" points="305.85,187.17 296.83,185.11 296.6,178.01 305.62,180.08 				"/>
			</g>
		</g>
		<g>
			<g>
				<polygon class="st2" points="293.29,204.95 284.29,202.87 284.05,195.77 293.06,197.85 				"/>
				<polygon class="st2" points="306.54,207.66 297.51,205.59 297.28,198.5 306.3,200.57 				"/>
			</g>
		</g>
		<g>
			<g>
				<polygon class="st2" points="293.97,225.42 284.96,223.35 284.73,216.28 293.74,218.35 				"/>
				<polygon class="st2" points="307.21,228.14 298.19,226.07 297.95,218.98 306.98,221.05 				"/>
			</g>
		</g>
		<g>
			<g>
				<polygon class="st2" points="294.65,245.92 285.64,243.84 285.41,236.76 294.42,238.81 				"/>
				<polygon class="st2" points="307.89,248.62 298.86,246.55 298.63,239.47 307.66,241.53 				"/>
			</g>
		</g>
		<g>
			<g>
				<polygon class="st2" points="295.33,266.41 286.32,264.33 286.08,257.24 295.1,259.31 				"/>
				<polygon class="st2" points="308.57,269.12 299.55,267.05 299.31,259.97 308.34,262.03 				"/>
			</g>
		</g>
		<g>
			<polygon class="st3" points="331.24,75.5 343.43,67.52 343.76,79.58 331.57,87.27 			"/>
			<polygon class="st3" points="332.22,110.44 344.41,103.29 344.74,115.35 332.55,122.25 			"/>
			<polygon class="st3" points="351.53,98.77 363.74,90.68 364.07,103.23 351.85,110.75 			"/>
			<polygon class="st3" points="350.61,64.86 362.83,56.07 363.15,68.52 350.93,76.82 			"/>
			<polygon class="st3" points="333.2,145.48 345.38,139.12 345.71,151.23 333.52,157.34 			"/>
			<polygon class="st3" points="352.5,135.04 364.71,127.83 365.04,140.43 352.82,147.12 			"/>
			<polygon class="st3" points="334.08,177.27 346.26,171.58 346.59,183.79 334.4,189.1 			"/>
			<polygon class="st3" points="353.38,167.99 365.6,161.53 365.92,174.12 353.7,180.12 			"/>
			<polygon class="st3" points="335.05,212.55 347.24,207.71 347.57,219.92 335.38,224.49 			"/>
			<polygon class="st3" points="354.36,204.59 366.57,198.89 366.9,211.52 354.68,216.74 			"/>
			<polygon class="st3" points="336.03,247.93 348.22,243.96 348.54,256.21 336.36,259.97 			"/>
			<polygon class="st3" points="355.33,241.29 367.55,236.41 367.88,249.15 355.65,253.48 			"/>
		</g>
		<g>
			<g>
				<polygon class="st3" points="419.29,71.2 406.88,63.21 406.88,75.59 419.29,83.32 				"/>
				<polygon class="st3" points="419.29,107.13 406.88,99.9 406.88,112.22 419.29,119.24 				"/>
				<polygon class="st3" points="399.63,95.36 387.18,87.33 387.18,100.12 399.63,107.59 				"/>
				<polygon class="st3" points="399.63,60.64 387.18,51.98 387.18,64.71 399.63,72.9 				"/>
				<polygon class="st3" points="419.29,143.03 406.88,136.5 406.88,148.84 419.29,155.15 				"/>
				<polygon class="st3" points="399.63,132.37 387.18,125.14 387.18,137.94 399.63,144.66 				"/>
				<polygon class="st3" points="419.29,175.48 406.88,169.55 406.88,181.95 419.29,187.53 				"/>
				<polygon class="st3" points="399.63,165.87 387.18,159.33 387.18,172.08 399.63,178.16 				"/>
				<polygon class="st3" points="419.29,211.37 406.88,206.2 406.88,218.56 419.29,223.48 				"/>
				<polygon class="st3" points="399.63,202.95 387.18,197.11 387.18,209.85 399.63,215.23 				"/>
				<polygon class="st3" points="419.29,247.23 406.88,242.84 406.88,255.2 419.29,259.4 				"/>
				<polygon class="st3" points="399.63,240 387.18,234.91 387.18,247.71 399.63,252.28 				"/>
			</g>
			<g>
				<polygon class="st3" points="438.69,81.83 426.27,74.28 426.27,86.27 438.69,93.57 				"/>
				<polygon class="st3" points="438.69,116.64 426.27,109.82 426.27,121.77 438.69,128.37 				"/>
				<polygon class="st3" points="438.69,151.41 426.27,145.29 426.27,157.25 438.69,163.15 				"/>
				<polygon class="st3" points="438.69,182.84 426.27,177.31 426.27,189.33 438.69,194.52 				"/>
				<polygon class="st3" points="438.69,217.61 426.27,212.83 426.27,224.8 438.69,229.34 				"/>
				<polygon class="st3" points="438.69,252.34 426.27,248.33 426.27,260.3 438.69,264.13 				"/>
			</g>
		</g>
		<g>
			<polygon class="st3" points="233.73,167.13 240.61,163.17 241.36,170.6 234.47,174.45 			"/>
			<polygon class="st3" points="235.94,188.86 242.84,185.25 243.59,192.7 236.68,196.21 			"/>
			<polygon class="st3" points="246.86,182.94 253.76,178.84 254.52,186.49 247.6,190.31 			"/>
			<polygon class="st3" points="244.77,162.1 251.65,157.73 252.41,165.32 245.51,169.45 			"/>
			<polygon class="st3" points="238.15,210.67 245.07,207.39 245.82,214.88 238.9,218.06 			"/>
			<polygon class="st3" points="249.1,205.26 256.01,201.51 256.78,209.21 249.84,212.7 			"/>
			<polygon class="st3" points="240.15,230.49 247.09,227.47 247.84,235.04 240.9,237.87 			"/>
			<polygon class="st3" points="251.13,225.56 258.06,222.1 258.82,229.79 251.88,233.03 			"/>
			<polygon class="st3" points="242.37,252.52 249.33,249.86 250.09,257.42 243.13,259.97 			"/>
			<polygon class="st3" points="253.38,248.11 260.32,244.94 261.09,252.67 254.13,255.61 			"/>
			<polygon class="st3" points="244.6,274.63 251.57,272.32 252.34,279.93 245.36,282.16 			"/>
			<polygon class="st3" points="255.63,270.77 262.59,267.9 263.36,275.69 256.39,278.29 			"/>
		</g>
		<g>
			<polygon class="st2" points="502.46,88.3 500.87,105 540.64,118.92 541.73,103.66 			"/>
			<polygon class="st2" points="591.53,136.74 593.51,123.93 550.76,107.2 549.63,122.08 			"/>
			<polygon class="st2" points="499.25,125.48 498.26,142.23 538.06,155.05 539.14,139.98 			"/>
			<polygon class="st2" points="587.19,170.87 588.68,158 548.04,143.22 546.93,157.91 			"/>
			<polygon class="st2" points="583.61,200.92 584.79,187.66 545.63,175.16 544.51,189.95 			"/>
			<polygon class="st2" points="496.87,159.59 496.02,176.35 535.74,187.49 536.83,172.35 			"/>
			<polygon class="st2" points="494.14,195.77 492.75,211.62 533.43,219.96 534.47,205.27 			"/>
			<polygon class="st2" points="581.43,229.81 582.32,216.53 543.2,207.32 542.11,221.75 			"/>
			<polygon class="st2" points="491.6,231.24 490.18,248.15 530.94,254.71 532.05,239.26 			"/>
			<polygon class="st2" points="579.25,262.49 580.3,248.83 540.66,240.97 539.51,256.09 			"/>
		</g>
		<g>
			<g>
				<polygon class="st3" points="453.12,120.04 481.6,96.31 481.54,108.58 453.06,129.46 				"/>
				<polygon class="st3" points="452.94,150.82 481.42,132.78 481.36,142.18 452.88,160.23 				"/>
				<polygon class="st3" points="452.59,184.02 481.07,165.93 481.01,175.37 452.53,193.39 				"/>
				<polygon class="st3" points="452.41,217.6 480.89,199.53 480.82,208.93 452.35,227 				"/>
				<polygon class="st3" points="452.23,251.14 480.71,235.96 480.64,245.37 452.16,260.6 				"/>
			</g>
		</g>
	</g>
	<g>
		<g>
			<path class="st1" d="M85.5,402.67c-4.12-4.44-6.18-10.29-6.18-17.57v-59.25c0-0.4,0.14-0.74,0.42-1.02
				c0.28-0.28,0.62-0.42,1.02-0.42h11.03c0.4,0,0.74,0.14,1.02,0.42c0.28,0.28,0.42,0.62,0.42,1.02v60.69c0,3.2,0.8,5.8,2.4,7.8
				c1.6,2,3.72,3,6.36,3s4.76-1,6.36-3c1.6-2,2.4-4.6,2.4-7.8v-60.69c0-0.4,0.14-0.74,0.42-1.02c0.28-0.28,0.62-0.42,1.02-0.42
				h11.03c0.4,0,0.74,0.14,1.02,0.42c0.28,0.28,0.42,0.62,0.42,1.02v59.25c0,7.28-2.08,13.13-6.24,17.57
				c-4.16,4.44-9.64,6.66-16.43,6.66C95.11,409.33,89.61,407.11,85.5,402.67z"/>
			<path class="st1" d="M137.55,407.95c-0.28-0.28-0.42-0.62-0.42-1.02v-81.07c0-0.4,0.14-0.74,0.42-1.02
				c0.28-0.28,0.62-0.42,1.02-0.42h11.03c0.4,0,0.74,0.14,1.02,0.42c0.28,0.28,0.42,0.62,0.42,1.02v69.92c0,0.4,0.2,0.6,0.6,0.6
				h25.91c0.4,0,0.74,0.14,1.02,0.42c0.28,0.28,0.42,0.62,0.42,1.02v9.11c0,0.4-0.14,0.74-0.42,1.02c-0.28,0.28-0.62,0.42-1.02,0.42
				h-38.98C138.16,408.37,137.83,408.23,137.55,407.95z"/>
			<path class="st1" d="M224.19,407.05l-2.28-12.59c0-0.4-0.24-0.6-0.72-0.6h-17.39c-0.48,0-0.72,0.16-0.72,0.48l-2.4,12.71
				c-0.08,0.88-0.6,1.32-1.56,1.32h-11.03c-1.04,0-1.44-0.52-1.2-1.56l17.63-81.07c0.16-0.88,0.68-1.32,1.56-1.32h12.83
				c0.88,0,1.4,0.44,1.56,1.32l17.75,81.07v0.48c0,0.72-0.44,1.08-1.32,1.08h-11.15C224.79,408.37,224.27,407.93,224.19,407.05z
				 M206.08,382.94h13.07c0.48,0,0.68-0.2,0.6-0.6l-6.6-36.22c-0.08-0.24-0.2-0.36-0.36-0.36c-0.16,0-0.28,0.12-0.36,0.36
				l-6.96,36.22C205.4,382.74,205.6,382.94,206.08,382.94z"/>
			<path class="st1" d="M245,407.95c-0.28-0.28-0.42-0.62-0.42-1.02v-9.59c0-0.64,0.12-1.24,0.36-1.8l26.86-58.41
				c0.08-0.16,0.08-0.32,0-0.48c-0.08-0.16-0.2-0.24-0.36-0.24h-25.43c-0.4,0-0.74-0.14-1.02-0.42c-0.28-0.28-0.42-0.62-0.42-1.02
				v-9.11c0-0.4,0.14-0.74,0.42-1.02c0.28-0.28,0.62-0.42,1.02-0.42h39.34c0.4,0,0.74,0.14,1.02,0.42c0.28,0.28,0.42,0.62,0.42,1.02
				v9.59c0,0.56-0.12,1.16-0.36,1.8l-26.86,58.41c-0.08,0.16-0.08,0.32,0,0.48c0.08,0.16,0.2,0.24,0.36,0.24h25.43
				c0.4,0,0.74,0.14,1.02,0.42c0.28,0.28,0.42,0.62,0.42,1.02v9.11c0,0.4-0.14,0.74-0.42,1.02c-0.28,0.28-0.62,0.42-1.02,0.42
				h-39.34C245.62,408.37,245.28,408.23,245,407.95z"/>
			<path class="st1" d="M297.17,407.95c-0.28-0.28-0.42-0.62-0.42-1.02v-81.07c0-0.4,0.14-0.74,0.42-1.02
				c0.28-0.28,0.62-0.42,1.02-0.42h11.03c0.4,0,0.74,0.14,1.02,0.42c0.28,0.28,0.42,0.62,0.42,1.02v81.07c0,0.4-0.14,0.74-0.42,1.02
				c-0.28,0.28-0.62,0.42-1.02,0.42h-11.03C297.79,408.37,297.45,408.23,297.17,407.95z"/>
			<path class="st0" d="M348.02,407.95c-0.28-0.28-0.42-0.62-0.42-1.02v-81.07c0-0.4,0.14-0.74,0.42-1.02
				c0.28-0.28,0.62-0.42,1.02-0.42h11.03c0.4,0,0.74,0.14,1.02,0.42c0.28,0.28,0.42,0.62,0.42,1.02v33.1c0,0.32,0.08,0.5,0.24,0.54
				c0.16,0.04,0.32-0.06,0.48-0.3l17.99-33.7c0.4-0.72,1-1.08,1.8-1.08h11.87c0.56,0,0.92,0.16,1.08,0.48
				c0.16,0.32,0.12,0.72-0.12,1.2l-17.99,33.7c-0.08,0.32-0.12,0.56-0.12,0.72l19.43,46.17c0.08,0.16,0.12,0.4,0.12,0.72
				c0,0.64-0.4,0.96-1.2,0.96h-11.87c-0.88,0-1.44-0.36-1.68-1.08l-14.15-34.66c-0.08-0.24-0.2-0.34-0.36-0.3
				c-0.16,0.04-0.32,0.14-0.48,0.3l-4.8,8.04c-0.16,0.32-0.24,0.56-0.24,0.72v25.55c0,0.4-0.14,0.74-0.42,1.02
				c-0.28,0.28-0.62,0.42-1.02,0.42h-11.03C348.64,408.37,348.3,408.23,348.02,407.95z"/>
			<path class="st0" d="M407.75,403.09c-4.2-4.16-6.3-9.67-6.3-16.55v-40.3c0-6.88,2.1-12.39,6.3-16.55
				c4.2-4.16,9.73-6.24,16.61-6.24c6.88,0,12.43,2.08,16.67,6.24c4.24,4.16,6.36,9.68,6.36,16.55v40.3c0,6.88-2.12,12.39-6.36,16.55
				c-4.24,4.16-9.79,6.24-16.67,6.24C417.48,409.33,411.94,407.25,407.75,403.09z M430.95,394.52c1.68-1.88,2.52-4.34,2.52-7.38
				v-41.5c0-3.04-0.84-5.5-2.52-7.38c-1.68-1.88-3.88-2.82-6.6-2.82c-2.72,0-4.9,0.94-6.54,2.82c-1.64,1.88-2.46,4.34-2.46,7.38
				v41.5c0,3.04,0.82,5.5,2.46,7.38c1.64,1.88,3.82,2.82,6.54,2.82C427.07,397.33,429.27,396.4,430.95,394.52z"/>
			<path class="st0" d="M459.32,407.95c-0.28-0.28-0.42-0.62-0.42-1.02v-81.07c0-0.4,0.14-0.74,0.42-1.02
				c0.28-0.28,0.62-0.42,1.02-0.42h11.03c0.4,0,0.74,0.14,1.02,0.42c0.28,0.28,0.42,0.62,0.42,1.02v69.92c0,0.4,0.2,0.6,0.6,0.6
				h25.91c0.4,0,0.74,0.14,1.02,0.42c0.28,0.28,0.42,0.62,0.42,1.02v9.11c0,0.4-0.14,0.74-0.42,1.02c-0.28,0.28-0.62,0.42-1.02,0.42
				h-38.98C459.93,408.37,459.59,408.23,459.32,407.95z"/>
			<path class="st0" d="M545.96,407.05l-2.28-12.59c0-0.4-0.24-0.6-0.72-0.6h-17.39c-0.48,0-0.72,0.16-0.72,0.48l-2.4,12.71
				c-0.08,0.88-0.6,1.32-1.56,1.32h-11.03c-1.04,0-1.44-0.52-1.2-1.56l17.63-81.07c0.16-0.88,0.68-1.32,1.56-1.32h12.83
				c0.88,0,1.4,0.44,1.56,1.32l17.75,81.07v0.48c0,0.72-0.44,1.08-1.32,1.08h-11.15C546.56,408.37,546.04,407.93,545.96,407.05z
				 M527.85,382.94h13.07c0.48,0,0.68-0.2,0.6-0.6l-6.6-36.22c-0.08-0.24-0.2-0.36-0.36-0.36c-0.16,0-0.28,0.12-0.36,0.36
				l-6.96,36.22C527.17,382.74,527.37,382.94,527.85,382.94z"/>
			<path class="st0" d="M571.51,403.27c-4.08-4.04-6.12-9.25-6.12-15.65v-3.36c0-0.4,0.14-0.74,0.42-1.02
				c0.28-0.28,0.62-0.42,1.02-0.42h10.79c0.4,0,0.74,0.14,1.02,0.42c0.28,0.28,0.42,0.62,0.42,1.02v2.64c0,3.12,0.8,5.64,2.4,7.56
				c1.6,1.92,3.6,2.88,6,2.88c2.48,0,4.52-0.9,6.12-2.7c1.6-1.8,2.4-4.18,2.4-7.14c0-2-0.44-3.78-1.32-5.34
				c-0.88-1.56-2.1-3.02-3.66-4.38c-1.56-1.36-4.1-3.32-7.62-5.88c-4-2.88-7.22-5.44-9.65-7.68c-2.44-2.24-4.48-4.94-6.12-8.1
				c-1.64-3.16-2.46-6.82-2.46-10.97c0-6.64,2-11.91,6-15.83c4-3.92,9.24-5.88,15.71-5.88c6.72,0,12.11,2.06,16.19,6.18
				c4.08,4.12,6.12,9.58,6.12,16.37v2.88c0,0.4-0.14,0.74-0.42,1.02c-0.28,0.28-0.62,0.42-1.02,0.42h-10.91
				c-0.4,0-0.74-0.14-1.02-0.42c-0.28-0.28-0.42-0.62-0.42-1.02v-3.12c0-3.12-0.78-5.62-2.34-7.5c-1.56-1.88-3.62-2.82-6.18-2.82
				c-2.32,0-4.24,0.86-5.76,2.58c-1.52,1.72-2.28,4.1-2.28,7.14c0,2.88,0.82,5.32,2.46,7.32c1.64,2,4.86,4.76,9.65,8.27
				c4.88,3.68,8.55,6.64,11.03,8.88c2.48,2.24,4.4,4.72,5.76,7.44c1.36,2.72,2.04,5.96,2.04,9.71c0,6.8-2.06,12.25-6.18,16.37
				c-4.12,4.12-9.5,6.18-16.13,6.18C580.9,409.33,575.59,407.31,571.51,403.27z M579.3,316.02l-7.8-12.35
				c-0.16-0.48-0.24-0.76-0.24-0.84c0-0.56,0.4-0.84,1.2-0.84h8.04c0.8,0,1.36,0.32,1.68,0.96l4.32,7.44
				c0.16,0.24,0.32,0.36,0.48,0.36c0.16,0,0.28-0.12,0.36-0.36l4.2-7.44c0.4-0.64,1-0.96,1.8-0.96h7.44c0.56,0,0.94,0.18,1.14,0.54
				c0.2,0.36,0.14,0.78-0.18,1.26l-8.04,12.23c-0.4,0.64-0.96,0.96-1.68,0.96h-11.03C580.18,316.98,579.62,316.66,579.3,316.02z"/>
			<path class="st0" d="M620.26,407.95c-0.28-0.28-0.42-0.62-0.42-1.02v-81.07c0-0.4,0.14-0.74,0.42-1.02
				c0.28-0.28,0.62-0.42,1.02-0.42h11.03c0.4,0,0.74,0.14,1.02,0.42c0.28,0.28,0.42,0.62,0.42,1.02v81.07c0,0.4-0.14,0.74-0.42,1.02
				c-0.28,0.28-0.62,0.42-1.02,0.42h-11.03C620.88,408.37,620.54,408.23,620.26,407.95z"/>
			<path class="st0" d="M647.24,407.95c-0.28-0.28-0.42-0.62-0.42-1.02v-81.07c0-0.4,0.14-0.74,0.42-1.02
				c0.28-0.28,0.62-0.42,1.02-0.42h11.51c0.88,0,1.44,0.36,1.68,1.08l18.59,48.81c0.16,0.24,0.32,0.36,0.48,0.36
				c0.16,0,0.24-0.16,0.24-0.48v-48.33c0-0.4,0.14-0.74,0.42-1.02c0.28-0.28,0.62-0.42,1.02-0.42h10.91c0.4,0,0.74,0.14,1.02,0.42
				c0.28,0.28,0.42,0.62,0.42,1.02v81.07c0,0.4-0.14,0.74-0.42,1.02c-0.28,0.28-0.62,0.42-1.02,0.42h-11.63
				c-0.88,0-1.44-0.36-1.68-1.08l-18.71-48.93c-0.08-0.24-0.22-0.34-0.42-0.3c-0.2,0.04-0.3,0.18-0.3,0.42l0.12,48.45
				c0,0.4-0.14,0.74-0.42,1.02c-0.28,0.28-0.62,0.42-1.02,0.42h-10.79C647.86,408.37,647.52,408.23,647.24,407.95z"/>
			<path class="st0" d="M741.69,407.05l-2.28-12.59c0-0.4-0.24-0.6-0.72-0.6H721.3c-0.48,0-0.72,0.16-0.72,0.48l-2.4,12.71
				c-0.08,0.88-0.6,1.32-1.56,1.32h-11.03c-1.04,0-1.44-0.52-1.2-1.56l17.63-81.07c0.16-0.88,0.68-1.32,1.56-1.32h12.83
				c0.88,0,1.4,0.44,1.56,1.32l17.75,81.07v0.48c0,0.72-0.44,1.08-1.32,1.08h-11.15C742.29,408.37,741.77,407.93,741.69,407.05z
				 M723.58,382.94h13.07c0.48,0,0.68-0.2,0.6-0.6l-6.6-36.22c-0.08-0.24-0.2-0.36-0.36-0.36c-0.16,0-0.28,0.12-0.36,0.36
				l-6.96,36.22C722.9,382.74,723.1,382.94,723.58,382.94z"/>
		</g>
	</g>
</g>
</svg>
