<?xml version="1.0" encoding="utf-8"?>
<!-- Generator: Adobe Illustrator 27.2.0, SVG Export Plug-In . SVG Version: 6.00 Build 0)  -->
<svg version="1.1" id="Layer_1" xmlns="http://www.w3.org/2000/svg" xmlns:xlink="http://www.w3.org/1999/xlink" x="0px" y="0px"
	 viewBox="0 0 827.23 427.44" style="enable-background:new 0 0 827.23 427.44;" xml:space="preserve">
<style type="text/css">
	.st0{fill:#27AAE1;}
	.st1{fill:#8DC63F;}
	.st2{fill:#FFFFFF;}
	.st3{fill-rule:evenodd;clip-rule:evenodd;fill:#FFFFFF;}
</style>
<path class="st0" d="M583.56,281.78c2.93-34.94,10.31-109.24,21.47-163.63c-78.16-35.17-115.27-46.01-115.27-46.01l-33.81,31.2
	l1.54-29.6l-80.01-43.48L316.32,66.6l5.66,82.12l-50.3-13.52c-0.63-0.18-1.21-0.18-1.82-0.05l-0.14-0.22l-0.93,0.69
	c0,0-0.03,0.02-0.03,0.03c-0.04,0.02-0.04,0.02-0.05,0.04l-45.39,22.63c-0.87,0.63-1.37,1.57-1.37,2.65L237,282.21
	C133.38,289,71.24,299.44,71.24,299.44s0,0.93,342.38,0.46c342.37-0.46,342.37-0.46,342.37-0.46S691.18,288.55,583.56,281.78z"/>
<g>
	<g>
		<polygon class="st2" points="292.4,164.45 283.43,162.4 283.2,155.33 292.17,157.38 		"/>
		<polygon class="st2" points="305.59,167.16 296.6,165.1 296.37,158.05 305.36,160.1 		"/>
	</g>
	<g>
		<g>
			<polygon class="st2" points="293.08,184.85 284.11,182.8 283.87,175.74 292.85,177.8 			"/>
			<polygon class="st2" points="306.27,187.57 297.28,185.51 297.04,178.44 306.04,180.5 			"/>
		</g>
	</g>
	<g>
		<g>
			<polygon class="st2" points="293.76,205.27 284.78,203.21 284.55,196.14 293.52,198.21 			"/>
			<polygon class="st2" points="306.95,207.98 297.95,205.92 297.72,198.85 306.71,200.92 			"/>
		</g>
	</g>
	<g>
		<g>
			<polygon class="st2" points="294.43,225.67 285.46,223.6 285.22,216.56 294.2,218.62 			"/>
			<polygon class="st2" points="307.62,228.38 298.63,226.32 298.4,219.25 307.39,221.32 			"/>
		</g>
	</g>
	<g>
		<g>
			<polygon class="st2" points="295.11,246.09 286.13,244.02 285.9,236.96 294.87,239.01 			"/>
			<polygon class="st2" points="308.3,248.78 299.3,246.72 299.07,239.66 308.06,241.72 			"/>
		</g>
	</g>
	<g>
		<g>
			<polygon class="st2" points="295.78,266.51 286.81,264.43 286.57,257.36 295.55,259.43 			"/>
			<polygon class="st2" points="308.97,269.2 299.98,267.14 299.75,260.08 308.74,262.14 			"/>
		</g>
	</g>
	<g>
		<polygon class="st3" points="331.56,76.32 343.7,68.37 344.03,80.39 331.89,88.05 		"/>
		<polygon class="st3" points="332.53,111.13 344.67,104.01 345,116.02 332.86,122.89 		"/>
		<polygon class="st3" points="351.76,99.5 363.93,91.44 364.26,103.94 352.08,111.43 		"/>
		<polygon class="st3" points="350.85,65.72 363.02,56.96 363.35,69.37 351.17,77.64 		"/>
		<polygon class="st3" points="333.51,146.03 345.64,139.7 345.97,151.76 333.83,157.85 		"/>
		<polygon class="st3" points="352.73,135.64 364.9,128.45 365.23,141 353.05,147.67 		"/>
		<polygon class="st3" points="334.38,177.7 346.52,172.04 346.85,184.2 334.71,189.49 		"/>
		<polygon class="st3" points="353.61,168.46 365.78,162.02 366.1,174.57 353.93,180.54 		"/>
		<polygon class="st3" points="335.35,212.85 347.49,208.02 347.82,220.19 335.68,224.74 		"/>
		<polygon class="st3" points="354.58,204.92 366.75,199.24 367.08,211.83 354.91,217.02 		"/>
		<polygon class="st3" points="336.32,248.1 348.47,244.13 348.79,256.34 336.65,260.09 		"/>
		<polygon class="st3" points="355.55,241.48 367.72,236.62 368.05,249.31 355.87,253.62 		"/>
	</g>
	<g>
		<g>
			<polygon class="st3" points="419.27,72.04 406.9,64.08 406.9,76.41 419.27,84.11 			"/>
			<polygon class="st3" points="419.27,107.83 406.9,100.62 406.9,112.91 419.27,119.9 			"/>
			<polygon class="st3" points="399.68,96.1 387.28,88.11 387.28,100.85 399.68,108.29 			"/>
			<polygon class="st3" points="399.68,61.52 387.28,52.89 387.28,65.58 399.68,73.74 			"/>
			<polygon class="st3" points="419.27,143.59 406.9,137.09 406.9,149.39 419.27,155.67 			"/>
			<polygon class="st3" points="399.68,132.97 387.28,125.77 387.28,138.53 399.68,145.22 			"/>
			<polygon class="st3" points="419.27,175.92 406.9,170.01 406.9,182.36 419.27,187.93 			"/>
			<polygon class="st3" points="399.68,166.34 387.28,159.83 387.28,172.53 399.68,178.59 			"/>
			<polygon class="st3" points="419.27,211.68 406.9,206.53 406.9,218.83 419.27,223.74 			"/>
			<polygon class="st3" points="399.68,203.29 387.28,197.46 387.28,210.16 399.68,215.52 			"/>
			<polygon class="st3" points="419.27,247.39 406.9,243.03 406.9,255.34 419.27,259.52 			"/>
			<polygon class="st3" points="399.68,240.2 387.28,235.12 387.28,247.87 399.68,252.42 			"/>
		</g>
		<g>
			<polygon class="st3" points="438.59,82.63 426.22,75.1 426.22,87.05 438.59,94.32 			"/>
			<polygon class="st3" points="438.59,117.3 426.22,110.51 426.22,122.41 438.59,128.99 			"/>
			<polygon class="st3" points="438.59,151.94 426.22,145.84 426.22,157.76 438.59,163.63 			"/>
			<polygon class="st3" points="438.59,183.26 426.22,177.74 426.22,189.72 438.59,194.89 			"/>
			<polygon class="st3" points="438.59,217.89 426.22,213.12 426.22,225.05 438.59,229.58 			"/>
			<polygon class="st3" points="438.59,252.49 426.22,248.49 426.22,260.42 438.59,264.24 			"/>
		</g>
	</g>
	<g>
		<polygon class="st3" points="234.41,167.61 241.28,163.66 242.02,171.06 235.16,174.89 		"/>
		<polygon class="st3" points="236.62,189.25 243.49,185.65 244.24,193.08 237.36,196.57 		"/>
		<polygon class="st3" points="247.5,183.35 254.37,179.27 255.13,186.89 248.24,190.69 		"/>
		<polygon class="st3" points="245.42,162.6 252.27,158.24 253.03,165.8 246.15,169.92 		"/>
		<polygon class="st3" points="238.82,210.98 245.72,207.71 246.47,215.17 239.57,218.34 		"/>
		<polygon class="st3" points="249.73,205.59 256.62,201.85 257.38,209.52 250.47,213 		"/>
		<polygon class="st3" points="240.82,230.72 247.72,227.72 248.48,235.25 241.56,238.08 		"/>
		<polygon class="st3" points="251.75,225.81 258.65,222.36 259.41,230.03 252.49,233.25 		"/>
		<polygon class="st3" points="243.03,252.67 249.96,250.01 250.71,257.55 243.78,260.09 		"/>
		<polygon class="st3" points="253.99,248.28 260.91,245.11 261.67,252.82 254.74,255.74 		"/>
		<polygon class="st3" points="245.25,274.69 252.19,272.39 252.95,279.97 246.01,282.2 		"/>
		<polygon class="st3" points="256.24,270.84 263.17,267.98 263.93,275.75 256.99,278.34 		"/>
	</g>
	<g>
		<polygon class="st2" points="502.12,89.07 500.53,105.71 540.15,119.58 541.24,104.38 		"/>
		<polygon class="st2" points="590.85,137.33 592.82,124.57 550.23,107.9 549.11,122.72 		"/>
		<polygon class="st2" points="498.92,126.11 497.93,142.8 537.58,155.57 538.66,140.56 		"/>
		<polygon class="st2" points="586.52,171.33 588.01,158.51 547.52,143.79 546.42,158.41 		"/>
		<polygon class="st2" points="582.96,201.26 584.14,188.05 545.12,175.6 544.01,190.34 		"/>
		<polygon class="st2" points="496.55,160.09 495.71,176.79 535.28,187.89 536.35,172.8 		"/>
		<polygon class="st2" points="493.83,196.14 492.45,211.92 532.97,220.23 534.01,205.59 		"/>
		<polygon class="st2" points="580.79,230.05 581.68,216.82 542.7,207.64 541.62,222.01 		"/>
		<polygon class="st2" points="491.3,231.47 489.89,248.31 530.5,254.85 531.59,239.46 		"/>
		<polygon class="st2" points="578.62,262.6 579.67,248.99 540.17,241.16 539.03,256.23 		"/>
	</g>
	<g>
		<g>
			<polygon class="st3" points="452.97,120.7 481.34,97.05 481.28,109.28 452.91,130.08 			"/>
			<polygon class="st3" points="452.79,151.36 481.16,133.38 481.1,142.75 452.73,160.73 			"/>
			<polygon class="st3" points="452.44,184.43 480.81,166.4 480.75,175.82 452.38,193.76 			"/>
			<polygon class="st3" points="452.26,217.88 480.63,199.88 480.57,209.25 452.2,227.25 			"/>
			<polygon class="st3" points="452.08,251.29 480.45,236.17 480.39,245.54 452.02,260.72 			"/>
		</g>
	</g>
</g>
<g>
	<path class="st1" d="M81.27,402.25c-4.53-4.88-6.79-11.31-6.79-19.31v-65.11c0-0.44,0.15-0.81,0.46-1.12
		c0.31-0.31,0.68-0.46,1.12-0.46h12.13c0.44,0,0.81,0.15,1.12,0.46c0.31,0.31,0.46,0.68,0.46,1.12v66.69c0,3.52,0.88,6.37,2.64,8.57
		c1.76,2.2,4.09,3.3,6.98,3.3c2.9,0,5.23-1.1,6.99-3.3c1.76-2.2,2.64-5.05,2.64-8.57v-66.69c0-0.44,0.15-0.81,0.46-1.12
		c0.31-0.31,0.68-0.46,1.12-0.46h12.13c0.44,0,0.81,0.15,1.12,0.46c0.31,0.31,0.46,0.68,0.46,1.12v65.11c0,8-2.29,14.43-6.85,19.31
		c-4.57,4.88-10.59,7.32-18.06,7.32C91.83,409.57,85.79,407.13,81.27,402.25z"/>
	<path class="st1" d="M138.47,408.05c-0.31-0.31-0.46-0.68-0.46-1.12v-89.1c0-0.44,0.15-0.81,0.46-1.12
		c0.31-0.31,0.68-0.46,1.12-0.46h12.13c0.44,0,0.81,0.15,1.12,0.46c0.31,0.31,0.46,0.68,0.46,1.12v76.84c0,0.44,0.22,0.66,0.66,0.66
		h28.47c0.44,0,0.81,0.15,1.12,0.46c0.31,0.31,0.46,0.68,0.46,1.12v10.02c0,0.44-0.15,0.81-0.46,1.12
		c-0.31,0.31-0.68,0.46-1.12,0.46h-42.84C139.15,408.52,138.78,408.36,138.47,408.05z"/>
	<path class="st1" d="M233.7,407.07l-2.5-13.84c0-0.44-0.26-0.66-0.79-0.66h-19.11c-0.53,0-0.79,0.18-0.79,0.53l-2.64,13.97
		c-0.09,0.97-0.66,1.45-1.71,1.45h-12.13c-1.14,0-1.58-0.57-1.32-1.71l19.38-89.1c0.17-0.97,0.75-1.45,1.71-1.45h14.1
		c0.97,0,1.54,0.48,1.71,1.45l19.51,89.1v0.53c0,0.79-0.48,1.19-1.45,1.19h-12.26C234.36,408.52,233.79,408.03,233.7,407.07z
		 M213.8,380.57h14.37c0.53,0,0.75-0.22,0.66-0.66l-7.25-39.81c-0.09-0.26-0.22-0.4-0.39-0.4c-0.18,0-0.31,0.13-0.39,0.4
		l-7.65,39.81C213.05,380.35,213.27,380.57,213.8,380.57z"/>
	<path class="st1" d="M256.57,408.05c-0.31-0.31-0.46-0.68-0.46-1.12v-10.54c0-0.7,0.13-1.36,0.39-1.98l29.53-64.19
		c0.09-0.18,0.09-0.35,0-0.53c-0.09-0.18-0.22-0.26-0.39-0.26h-27.94c-0.44,0-0.81-0.15-1.12-0.46c-0.31-0.31-0.46-0.68-0.46-1.12
		v-10.02c0-0.44,0.15-0.81,0.46-1.12c0.31-0.31,0.68-0.46,1.12-0.46h43.23c0.44,0,0.81,0.15,1.12,0.46
		c0.31,0.31,0.46,0.68,0.46,1.12v10.54c0,0.62-0.13,1.27-0.4,1.98l-29.53,64.19c-0.09,0.18-0.09,0.35,0,0.53
		c0.09,0.18,0.22,0.26,0.4,0.26h27.94c0.44,0,0.81,0.15,1.12,0.46c0.31,0.31,0.46,0.68,0.46,1.12v10.02c0,0.44-0.15,0.81-0.46,1.12
		c-0.31,0.31-0.68,0.46-1.12,0.46h-43.23C257.25,408.52,256.87,408.36,256.57,408.05z"/>
	<path class="st1" d="M313.9,408.05c-0.31-0.31-0.46-0.68-0.46-1.12v-89.1c0-0.44,0.15-0.81,0.46-1.12
		c0.31-0.31,0.68-0.46,1.12-0.46h12.13c0.44,0,0.81,0.15,1.12,0.46c0.31,0.31,0.46,0.68,0.46,1.12v89.1c0,0.44-0.15,0.81-0.46,1.12
		c-0.31,0.31-0.68,0.46-1.12,0.46h-12.13C314.58,408.52,314.21,408.36,313.9,408.05z"/>
	<path class="st0" d="M374.53,402.78c-4.53-4.52-6.79-10.52-6.79-17.99v-44.95c0-7.56,2.26-13.55,6.79-17.99
		c4.53-4.44,10.52-6.66,17.99-6.66c7.56,0,13.62,2.22,18.19,6.66c4.57,4.44,6.85,10.44,6.85,17.99v1.58c0,0.44-0.15,0.84-0.46,1.19
		c-0.31,0.35-0.68,0.53-1.12,0.53l-12.26,0.53c-1.05,0-1.58-0.53-1.58-1.58v-3.29c0-3.08-0.88-5.58-2.64-7.51
		c-1.76-1.93-4.09-2.9-6.99-2.9c-2.81,0-5.1,0.97-6.85,2.9c-1.76,1.93-2.64,4.44-2.64,7.51v47.19c0,3.08,0.88,5.58,2.64,7.51
		c1.76,1.93,4.04,2.9,6.85,2.9c2.9,0,5.23-0.97,6.99-2.9c1.76-1.93,2.64-4.44,2.64-7.51v-3.29c0-0.44,0.15-0.81,0.46-1.12
		c0.31-0.31,0.68-0.46,1.12-0.46l12.26,0.53c0.44,0,0.81,0.15,1.12,0.46c0.31,0.31,0.46,0.68,0.46,1.12v1.58
		c0,7.47-2.29,13.47-6.85,17.99c-4.57,4.53-10.63,6.79-18.19,6.79C385.06,409.57,379.06,407.31,374.53,402.78z"/>
	<path class="st0" d="M475.1,328.97c-0.31,0.31-0.68,0.46-1.12,0.46h-28.47c-0.44,0-0.66,0.22-0.66,0.66V355
		c0,0.44,0.22,0.66,0.66,0.66h16.87c0.44,0,0.81,0.15,1.12,0.46c0.31,0.31,0.46,0.68,0.46,1.12v10.15c0,0.44-0.15,0.81-0.46,1.12
		c-0.31,0.31-0.68,0.46-1.12,0.46h-16.87c-0.44,0-0.66,0.22-0.66,0.66v25.04c0,0.44,0.22,0.66,0.66,0.66h28.47
		c0.44,0,0.81,0.15,1.12,0.46c0.31,0.31,0.46,0.68,0.46,1.12v10.02c0,0.44-0.16,0.81-0.46,1.12c-0.31,0.31-0.68,0.46-1.12,0.46
		h-42.84c-0.44,0-0.81-0.15-1.12-0.46c-0.31-0.31-0.46-0.68-0.46-1.12v-89.1c0-0.44,0.15-0.81,0.46-1.12
		c0.31-0.31,0.68-0.46,1.12-0.46h42.84c0.44,0,0.81,0.15,1.12,0.46c0.31,0.31,0.46,0.68,0.46,1.12v10.02
		C475.56,328.29,475.41,328.66,475.1,328.97z"/>
	<path class="st0" d="M535.34,316.71c0.31,0.31,0.46,0.68,0.46,1.12v10.02c0,0.44-0.15,0.81-0.46,1.12
		c-0.31,0.31-0.68,0.46-1.12,0.46h-16.74c-0.44,0-0.66,0.22-0.66,0.66v76.84c0,0.44-0.15,0.81-0.46,1.12
		c-0.31,0.31-0.68,0.46-1.12,0.46h-12.13c-0.44,0-0.81-0.15-1.12-0.46c-0.31-0.31-0.46-0.68-0.46-1.12v-76.84
		c0-0.44-0.22-0.66-0.66-0.66h-15.82c-0.44,0-0.81-0.15-1.12-0.46c-0.31-0.31-0.46-0.68-0.46-1.12v-10.02
		c0-0.44,0.15-0.81,0.46-1.12c0.31-0.31,0.68-0.46,1.12-0.46h49.16C534.66,316.25,535.03,316.4,535.34,316.71z"/>
	<path class="st0" d="M546.94,408.05c-0.31-0.31-0.46-0.68-0.46-1.12v-89.1c0-0.44,0.15-0.81,0.46-1.12
		c0.31-0.31,0.68-0.46,1.12-0.46h12.13c0.44,0,0.81,0.15,1.12,0.46c0.31,0.31,0.46,0.68,0.46,1.12v89.1c0,0.44-0.15,0.81-0.46,1.12
		c-0.31,0.31-0.68,0.46-1.12,0.46h-12.13C547.62,408.52,547.24,408.36,546.94,408.05z"/>
	<path class="st0" d="M576.59,408.05c-0.31-0.31-0.46-0.68-0.46-1.12v-89.1c0-0.44,0.15-0.81,0.46-1.12
		c0.31-0.31,0.68-0.46,1.12-0.46h12.65c0.97,0,1.58,0.4,1.84,1.19l20.43,53.65c0.18,0.26,0.35,0.4,0.53,0.4
		c0.18,0,0.26-0.18,0.26-0.53v-53.12c0-0.44,0.15-0.81,0.46-1.12c0.31-0.31,0.68-0.46,1.12-0.46h11.99c0.44,0,0.81,0.15,1.12,0.46
		c0.31,0.31,0.46,0.68,0.46,1.12v89.1c0,0.44-0.15,0.81-0.46,1.12c-0.31,0.31-0.68,0.46-1.12,0.46h-12.78
		c-0.97,0-1.58-0.4-1.85-1.19l-20.56-53.78c-0.09-0.26-0.24-0.37-0.46-0.33c-0.22,0.05-0.33,0.2-0.33,0.46l0.13,53.25
		c0,0.44-0.15,0.81-0.46,1.12c-0.31,0.31-0.68,0.46-1.12,0.46h-11.86C577.27,408.52,576.9,408.36,576.59,408.05z"/>
	<path class="st0" d="M644.67,403.05c-4.48-4.35-6.72-10.13-6.72-17.33v-9.75c0-0.44,0.15-0.81,0.46-1.12
		c0.31-0.31,0.68-0.46,1.12-0.46h12.13c0.44,0,0.81,0.15,1.12,0.46c0.31,0.31,0.46,0.68,0.46,1.12v10.02c0,3.08,0.83,5.58,2.51,7.51
		c1.67,1.93,3.86,2.9,6.59,2.9c2.72,0,4.94-0.97,6.66-2.9c1.71-1.93,2.57-4.44,2.57-7.51v-68.14c0-0.44,0.15-0.81,0.46-1.12
		c0.31-0.31,0.68-0.46,1.12-0.46h12.13c0.44,0,0.81,0.15,1.12,0.46c0.31,0.31,0.46,0.68,0.46,1.12v67.88
		c0,7.21-2.26,12.98-6.79,17.33c-4.53,4.35-10.44,6.52-17.73,6.52C655.04,409.57,649.15,407.4,644.67,403.05z"/>
	<path class="st0" d="M737.33,407.07l-2.5-13.84c0-0.44-0.26-0.66-0.79-0.66h-19.11c-0.53,0-0.79,0.18-0.79,0.53l-2.64,13.97
		c-0.09,0.97-0.66,1.45-1.71,1.45h-12.13c-1.14,0-1.58-0.57-1.32-1.71l19.38-89.1c0.17-0.97,0.75-1.45,1.71-1.45h14.1
		c0.97,0,1.54,0.48,1.71,1.45l19.51,89.1v0.53c0,0.79-0.48,1.19-1.45,1.19h-12.26C737.99,408.52,737.42,408.03,737.33,407.07z
		 M717.43,380.57h14.37c0.53,0,0.75-0.22,0.66-0.66l-7.25-39.81c-0.09-0.26-0.22-0.4-0.39-0.4c-0.18,0-0.31,0.13-0.4,0.4
		l-7.65,39.81C716.68,380.35,716.9,380.57,717.43,380.57z"/>
</g>
</svg>
