<?xml version="1.0" encoding="utf-8"?>
<!-- Generator: Adobe Illustrator 27.2.0, SVG Export Plug-In . SVG Version: 6.00 Build 0)  -->
<svg version="1.1" id="Layer_1" xmlns="http://www.w3.org/2000/svg" xmlns:xlink="http://www.w3.org/1999/xlink" x="0px" y="0px"
	 viewBox="0 0 827.23 427.44" style="enable-background:new 0 0 827.23 427.44;" xml:space="preserve">
<style type="text/css">
	.st0{fill:#27AAE1;}
	.st1{fill:#8DC63F;}
	.st2{fill:#FFFFFF;}
	.st3{fill-rule:evenodd;clip-rule:evenodd;fill:#FFFFFF;}
</style>
<path class="st0" d="M589.22,289.96c3.02-36.11,10.65-112.88,22.18-169.09c-80.76-36.34-119.11-47.54-119.11-47.54l-34.94,32.24
	l1.59-30.59l-82.67-44.93l-63.19,37.56l5.85,84.85l-51.98-13.97c-0.65-0.19-1.26-0.19-1.88-0.05l-0.15-0.22l-0.96,0.71
	c0,0-0.03,0.02-0.03,0.03c-0.04,0.02-0.04,0.02-0.05,0.04l-46.9,23.39c-0.9,0.65-1.42,1.62-1.42,2.74l15.54,125.27
	c-107.08,7.02-171.29,17.8-171.29,17.8s0,0.96,353.8,0.48c353.8-0.48,353.8-0.48,353.8-0.48S700.44,296.96,589.22,289.96z"/>
<g>
	<g>
		<polygon class="st2" points="288.36,168.73 279.09,166.6 278.85,159.3 288.12,161.41 		"/>
		<polygon class="st2" points="301.99,171.52 292.7,169.39 292.46,162.1 301.75,164.22 		"/>
	</g>
	<g>
		<g>
			<polygon class="st2" points="289.06,189.8 279.79,187.68 279.54,180.39 288.82,182.51 			"/>
			<polygon class="st2" points="302.69,192.61 293.4,190.48 293.16,183.18 302.45,185.3 			"/>
		</g>
	</g>
	<g>
		<g>
			<polygon class="st2" points="289.76,210.9 280.48,208.77 280.24,201.46 289.51,203.6 			"/>
			<polygon class="st2" points="303.39,213.7 294.09,211.57 293.86,204.27 303.14,206.4 			"/>
		</g>
	</g>
	<g>
		<g>
			<polygon class="st2" points="290.45,231.99 281.18,229.85 280.94,222.57 290.21,224.7 			"/>
			<polygon class="st2" points="304.08,234.78 294.79,232.65 294.55,225.35 303.84,227.49 			"/>
		</g>
	</g>
	<g>
		<g>
			<polygon class="st2" points="291.15,253.08 281.88,250.95 281.64,243.65 290.91,245.76 			"/>
			<polygon class="st2" points="304.78,255.87 295.49,253.73 295.25,246.44 304.54,248.57 			"/>
		</g>
	</g>
	<g>
		<g>
			<polygon class="st2" points="291.85,274.18 282.58,272.03 282.34,264.73 291.61,266.86 			"/>
			<polygon class="st2" points="305.48,276.97 296.19,274.84 295.95,267.54 305.24,269.67 			"/>
		</g>
	</g>
	<g>
		<polygon class="st3" points="328.82,77.65 341.37,69.44 341.71,81.85 329.16,89.77 		"/>
		<polygon class="st3" points="329.83,113.62 342.38,106.27 342.71,118.67 330.17,125.78 		"/>
		<polygon class="st3" points="349.7,101.61 362.27,93.28 362.61,106.2 350.03,113.94 		"/>
		<polygon class="st3" points="348.76,66.7 361.33,57.65 361.67,70.47 349.09,79.02 		"/>
		<polygon class="st3" points="330.83,149.69 343.38,143.15 343.72,155.61 331.17,161.9 		"/>
		<polygon class="st3" points="350.7,138.95 363.28,131.52 363.61,144.49 351.03,151.38 		"/>
		<polygon class="st3" points="331.74,182.41 344.28,176.56 344.62,189.13 332.08,194.6 		"/>
		<polygon class="st3" points="351.61,172.86 364.18,166.21 364.52,179.18 351.94,185.35 		"/>
		<polygon class="st3" points="332.74,218.73 345.29,213.75 345.63,226.31 333.08,231.02 		"/>
		<polygon class="st3" points="352.61,210.54 365.19,204.67 365.53,217.68 352.95,223.05 		"/>
		<polygon class="st3" points="333.74,255.16 346.29,251.06 346.63,263.67 334.08,267.55 		"/>
		<polygon class="st3" points="353.62,248.32 366.19,243.3 366.53,256.41 353.95,260.87 		"/>
	</g>
	<g>
		<g>
			<polygon class="st3" points="419.46,73.23 406.68,65.01 406.68,77.74 419.46,85.7 			"/>
			<polygon class="st3" points="419.46,110.21 406.68,102.77 406.68,115.46 419.46,122.68 			"/>
			<polygon class="st3" points="399.21,98.09 386.4,89.83 386.4,102.99 399.21,110.69 			"/>
			<polygon class="st3" points="399.21,62.35 386.4,53.44 386.4,66.55 399.21,74.98 			"/>
			<polygon class="st3" points="419.46,147.17 406.68,140.44 406.68,153.15 419.46,159.64 			"/>
			<polygon class="st3" points="399.21,136.19 386.4,128.75 386.4,141.93 399.21,148.85 			"/>
			<polygon class="st3" points="419.46,180.57 406.68,174.47 406.68,187.23 419.46,192.98 			"/>
			<polygon class="st3" points="399.21,170.68 386.4,163.95 386.4,177.07 399.21,183.34 			"/>
			<polygon class="st3" points="419.46,217.52 406.68,212.2 406.68,224.92 419.46,229.99 			"/>
			<polygon class="st3" points="399.21,208.85 386.4,202.84 386.4,215.95 399.21,221.49 			"/>
			<polygon class="st3" points="419.46,254.43 406.68,249.92 406.68,262.64 419.46,266.96 			"/>
			<polygon class="st3" points="399.21,246.99 386.4,241.75 386.4,254.92 399.21,259.63 			"/>
		</g>
		<g>
			<polygon class="st3" points="439.42,84.17 426.65,76.39 426.65,88.74 439.42,96.26 			"/>
			<polygon class="st3" points="439.42,120 426.65,112.98 426.65,125.28 439.42,132.08 			"/>
			<polygon class="st3" points="439.42,155.79 426.65,149.49 426.65,161.81 439.42,167.88 			"/>
			<polygon class="st3" points="439.42,188.15 426.65,182.46 426.65,194.83 439.42,200.17 			"/>
			<polygon class="st3" points="439.42,223.94 426.65,219.02 426.65,231.34 439.42,236.02 			"/>
			<polygon class="st3" points="439.42,259.7 426.65,255.57 426.65,267.89 439.42,271.83 			"/>
		</g>
	</g>
	<g>
		<polygon class="st3" points="228.44,171.98 235.53,167.91 236.3,175.55 229.2,179.51 		"/>
		<polygon class="st3" points="230.71,194.35 237.82,190.63 238.59,198.3 231.48,201.91 		"/>
		<polygon class="st3" points="241.96,188.25 249.06,184.03 249.84,191.91 242.72,195.84 		"/>
		<polygon class="st3" points="239.81,166.8 246.89,162.3 247.67,170.12 240.57,174.37 		"/>
		<polygon class="st3" points="232.99,216.8 240.12,213.42 240.89,221.13 233.76,224.41 		"/>
		<polygon class="st3" points="244.26,211.23 251.38,207.37 252.17,215.29 245.03,218.89 		"/>
		<polygon class="st3" points="235.05,237.2 242.19,234.1 242.97,241.88 235.82,244.8 		"/>
		<polygon class="st3" points="246.35,232.12 253.49,228.56 254.27,236.48 247.12,239.81 		"/>
		<polygon class="st3" points="237.34,259.88 244.5,257.14 245.28,264.92 238.12,267.55 		"/>
		<polygon class="st3" points="248.67,255.34 255.81,252.07 256.61,260.03 249.44,263.06 		"/>
		<polygon class="st3" points="239.63,282.64 246.81,280.26 247.59,288.1 240.41,290.39 		"/>
		<polygon class="st3" points="250.99,278.66 258.15,275.71 258.94,283.73 251.76,286.41 		"/>
	</g>
	<g>
		<polygon class="st2" points="505.07,90.83 503.43,108.02 544.37,122.35 545.5,106.65 		"/>
		<polygon class="st2" points="596.76,140.7 598.8,127.5 554.79,110.29 553.63,125.6 		"/>
		<polygon class="st2" points="501.77,129.1 500.75,146.34 541.72,159.54 542.83,144.03 		"/>
		<polygon class="st2" points="592.29,175.83 593.82,162.58 551.99,147.37 550.85,162.48 		"/>
		<polygon class="st2" points="588.61,206.76 589.83,193.11 549.51,180.24 548.36,195.47 		"/>
		<polygon class="st2" points="499.31,164.22 498.45,181.47 539.33,192.94 540.45,177.35 		"/>
		<polygon class="st2" points="496.5,201.46 495.08,217.77 536.95,226.36 538.03,211.24 		"/>
		<polygon class="st2" points="586.36,236.5 587.28,222.83 547.01,213.35 545.89,228.2 		"/>
		<polygon class="st2" points="493.89,237.98 492.43,255.38 534.39,262.14 535.53,246.23 		"/>
		<polygon class="st2" points="584.13,270.14 585.2,256.08 544.39,247.99 543.21,263.56 		"/>
	</g>
	<g>
		<g>
			<polygon class="st3" points="454.28,123.51 483.6,99.07 483.54,111.71 454.22,133.2 			"/>
			<polygon class="st3" points="454.1,155.19 483.41,136.62 483.35,146.29 454.04,164.87 			"/>
			<polygon class="st3" points="453.73,189.37 483.05,170.74 482.99,180.46 453.67,199.01 			"/>
			<polygon class="st3" points="453.55,223.93 482.86,205.33 482.8,215.01 453.49,233.61 			"/>
			<polygon class="st3" points="453.36,258.46 482.68,242.83 482.61,252.51 453.3,268.2 			"/>
		</g>
	</g>
</g>
<g>
	<path class="st1" d="M69.08,402.69c-3.19-3.44-4.79-7.98-4.79-13.63v-45.96c0-0.31,0.11-0.57,0.33-0.79
		c0.22-0.22,0.48-0.33,0.79-0.33h8.56c0.31,0,0.57,0.11,0.79,0.33c0.22,0.22,0.33,0.48,0.33,0.79v47.07c0,2.48,0.62,4.5,1.86,6.05
		c1.24,1.55,2.88,2.33,4.93,2.33c2.05,0,3.69-0.77,4.93-2.33c1.24-1.55,1.86-3.57,1.86-6.05v-47.07c0-0.31,0.11-0.57,0.33-0.79
		c0.22-0.22,0.48-0.33,0.79-0.33h8.56c0.31,0,0.57,0.11,0.79,0.33c0.22,0.22,0.33,0.48,0.33,0.79v45.96
		c0,5.64-1.61,10.19-4.84,13.63c-3.23,3.44-7.47,5.16-12.75,5.16C76.53,407.86,72.27,406.13,69.08,402.69z"/>
	<path class="st1" d="M109.45,406.79c-0.22-0.22-0.33-0.48-0.33-0.79v-62.89c0-0.31,0.11-0.57,0.33-0.79
		c0.22-0.22,0.48-0.33,0.79-0.33h8.56c0.31,0,0.57,0.11,0.79,0.33c0.22,0.22,0.33,0.48,0.33,0.79v54.24c0,0.31,0.15,0.46,0.46,0.46
		h20.09c0.31,0,0.57,0.11,0.79,0.33c0.22,0.22,0.33,0.48,0.33,0.79V406c0,0.31-0.11,0.57-0.33,0.79c-0.22,0.22-0.48,0.33-0.79,0.33
		h-30.24C109.93,407.11,109.67,407,109.45,406.79z"/>
	<path class="st1" d="M176.67,406.09l-1.77-9.77c0-0.31-0.19-0.47-0.56-0.47h-13.49c-0.37,0-0.56,0.12-0.56,0.37l-1.86,9.86
		c-0.06,0.68-0.47,1.02-1.21,1.02h-8.56c-0.81,0-1.12-0.4-0.93-1.21l13.68-62.89c0.12-0.68,0.53-1.02,1.21-1.02h9.95
		c0.68,0,1.08,0.34,1.21,1.02l13.77,62.89v0.37c0,0.56-0.34,0.84-1.02,0.84h-8.65C177.13,407.11,176.73,406.77,176.67,406.09z
		 M162.62,387.39h10.14c0.37,0,0.53-0.15,0.46-0.47l-5.12-28.1c-0.06-0.19-0.16-0.28-0.28-0.28c-0.12,0-0.22,0.09-0.28,0.28
		l-5.4,28.1C162.09,387.23,162.25,387.39,162.62,387.39z"/>
	<path class="st1" d="M192.81,406.79c-0.22-0.22-0.33-0.48-0.33-0.79v-7.44c0-0.5,0.09-0.96,0.28-1.4l20.84-45.31
		c0.06-0.12,0.06-0.25,0-0.37c-0.06-0.12-0.16-0.19-0.28-0.19H193.6c-0.31,0-0.57-0.11-0.79-0.33c-0.22-0.22-0.33-0.48-0.33-0.79
		v-7.07c0-0.31,0.11-0.57,0.33-0.79c0.22-0.22,0.48-0.33,0.79-0.33h30.51c0.31,0,0.57,0.11,0.79,0.33c0.22,0.22,0.33,0.48,0.33,0.79
		v7.44c0,0.43-0.09,0.9-0.28,1.4l-20.84,45.31c-0.06,0.13-0.06,0.25,0,0.37c0.06,0.13,0.15,0.19,0.28,0.19h19.72
		c0.31,0,0.57,0.11,0.79,0.33c0.22,0.22,0.33,0.48,0.33,0.79V406c0,0.31-0.11,0.57-0.33,0.79c-0.22,0.22-0.48,0.33-0.79,0.33H193.6
		C193.29,407.11,193.02,407,192.81,406.79z"/>
	<path class="st1" d="M233.28,406.79c-0.22-0.22-0.33-0.48-0.33-0.79v-62.89c0-0.31,0.11-0.57,0.33-0.79
		c0.22-0.22,0.48-0.33,0.79-0.33h8.56c0.31,0,0.57,0.11,0.79,0.33c0.22,0.22,0.33,0.48,0.33,0.79V406c0,0.31-0.11,0.57-0.33,0.79
		c-0.22,0.22-0.48,0.33-0.79,0.33h-8.56C233.76,407.11,233.49,407,233.28,406.79z"/>
	<path class="st0" d="M302.86,402.46c-3.32,3.1-7.64,4.65-12.98,4.65h-16.37c-0.31,0-0.57-0.11-0.79-0.33
		c-0.22-0.22-0.33-0.48-0.33-0.79v-62.89c0-0.31,0.11-0.57,0.33-0.79c0.22-0.22,0.48-0.33,0.79-0.33h14.7
		c5.89,0,10.51,1.49,13.86,4.47c3.35,2.98,5.02,7.32,5.02,13.02c0,6.39-2.26,10.95-6.79,13.68c-0.31,0.19-0.37,0.37-0.19,0.56
		c2.42,1.55,4.31,3.63,5.67,6.23c1.36,2.6,2.05,5.71,2.05,9.3C307.84,394.96,306.18,399.36,302.86,402.46z M283.19,351.76v17.3
		c0,0.31,0.15,0.47,0.46,0.47h4.74c2.54,0,4.53-0.77,5.95-2.33c1.43-1.55,2.14-3.75,2.14-6.61c0-2.98-0.71-5.27-2.14-6.88
		c-1.43-1.61-3.41-2.42-5.95-2.42h-4.74C283.34,351.29,283.19,351.45,283.19,351.76z M294.91,395.11c1.43-1.74,2.14-4.19,2.14-7.35
		c0-3.22-0.71-5.75-2.14-7.58c-1.43-1.83-3.38-2.74-5.86-2.74h-5.4c-0.31,0-0.46,0.16-0.46,0.47v19.35c0,0.31,0.15,0.47,0.46,0.47
		h5.4C291.53,397.72,293.48,396.85,294.91,395.11z"/>
	<path class="st0" d="M315.7,406.79c-0.22-0.22-0.33-0.48-0.33-0.79v-62.89c0-0.31,0.11-0.57,0.33-0.79
		c0.22-0.22,0.48-0.33,0.79-0.33h8.56c0.31,0,0.57,0.11,0.79,0.33c0.22,0.22,0.33,0.48,0.33,0.79V406c0,0.31-0.11,0.57-0.33,0.79
		c-0.22,0.22-0.48,0.33-0.79,0.33h-8.56C316.18,407.11,315.92,407,315.7,406.79z M337.52,403.25c-3.16-3.07-4.74-7.15-4.74-12.23
		v-6.88c0-0.31,0.11-0.57,0.33-0.79c0.22-0.22,0.48-0.33,0.79-0.33h8.56c0.31,0,0.57,0.11,0.79,0.33c0.22,0.22,0.33,0.48,0.33,0.79
		v7.07c0,2.17,0.59,3.94,1.77,5.3c1.18,1.36,2.73,2.05,4.65,2.05c1.92,0,3.49-0.68,4.7-2.05c1.21-1.36,1.81-3.13,1.81-5.3v-48.1
		c0-0.31,0.11-0.57,0.33-0.79c0.22-0.22,0.48-0.33,0.79-0.33h8.56c0.31,0,0.57,0.11,0.79,0.33c0.22,0.22,0.33,0.48,0.33,0.79v47.91
		c0,5.09-1.6,9.16-4.79,12.23c-3.2,3.07-7.37,4.6-12.51,4.6C344.83,407.86,340.68,406.32,337.52,403.25z"/>
	<path class="st0" d="M409.57,350.97c-0.22,0.22-0.48,0.33-0.79,0.33h-20.09c-0.31,0-0.46,0.16-0.46,0.47v17.58
		c0,0.31,0.15,0.47,0.46,0.47h11.91c0.31,0,0.57,0.11,0.79,0.33c0.22,0.22,0.33,0.48,0.33,0.79v7.16c0,0.31-0.11,0.57-0.33,0.79
		c-0.22,0.22-0.48,0.33-0.79,0.33h-11.91c-0.31,0-0.46,0.16-0.46,0.47v17.68c0,0.31,0.15,0.46,0.46,0.46h20.09
		c0.31,0,0.57,0.11,0.79,0.33c0.22,0.22,0.33,0.48,0.33,0.79V406c0,0.31-0.11,0.57-0.33,0.79c-0.22,0.22-0.48,0.33-0.79,0.33h-30.24
		c-0.31,0-0.57-0.11-0.79-0.33c-0.22-0.22-0.33-0.48-0.33-0.79v-62.89c0-0.31,0.11-0.57,0.33-0.79c0.22-0.22,0.48-0.33,0.79-0.33
		h30.24c0.31,0,0.57,0.11,0.79,0.33c0.22,0.22,0.33,0.48,0.33,0.79v7.07C409.89,350.49,409.79,350.75,409.57,350.97z"/>
	<path class="st0" d="M418.22,406.79c-0.22-0.22-0.33-0.48-0.33-0.79v-62.89c0-0.31,0.11-0.57,0.33-0.79
		c0.22-0.22,0.48-0.33,0.79-0.33h8.56c0.31,0,0.57,0.11,0.79,0.33c0.22,0.22,0.33,0.48,0.33,0.79v54.24c0,0.31,0.15,0.46,0.46,0.46
		h20.09c0.31,0,0.57,0.11,0.79,0.33c0.22,0.22,0.33,0.48,0.33,0.79V406c0,0.31-0.11,0.57-0.33,0.79c-0.22,0.22-0.48,0.33-0.79,0.33
		h-30.24C418.7,407.11,418.44,407,418.22,406.79z"/>
	<path class="st0" d="M459.99,403.02c-3.26-3.22-4.88-7.5-4.88-12.84v-31.26c0-5.33,1.63-9.61,4.88-12.84
		c3.26-3.22,7.55-4.84,12.88-4.84c5.33,0,9.64,1.61,12.93,4.84c3.29,3.23,4.93,7.51,4.93,12.84v31.26c0,5.33-1.64,9.61-4.93,12.84
		c-3.29,3.23-7.6,4.84-12.93,4.84C467.54,407.86,463.25,406.24,459.99,403.02z M477.99,396.37c1.3-1.46,1.95-3.36,1.95-5.72v-32.19
		c0-2.36-0.65-4.26-1.95-5.72c-1.3-1.46-3.01-2.19-5.12-2.19c-2.11,0-3.8,0.73-5.07,2.19c-1.27,1.46-1.91,3.37-1.91,5.72v32.19
		c0,2.36,0.64,4.26,1.91,5.72c1.27,1.46,2.96,2.19,5.07,2.19C474.99,398.55,476.69,397.82,477.99,396.37z"/>
	<path class="st0" d="M503.35,403.25c-3.2-3.07-4.79-7.15-4.79-12.23v-32.93c0-5.08,1.6-9.16,4.79-12.23
		c3.19-3.07,7.43-4.61,12.7-4.61c5.27,0,9.54,1.54,12.79,4.61c3.26,3.07,4.88,7.18,4.88,12.33v3.63c0,0.31-0.11,0.57-0.33,0.79
		c-0.22,0.22-0.48,0.33-0.79,0.33h-8.56c-0.31,0-0.57-0.11-0.79-0.33c-0.22-0.22-0.33-0.48-0.33-0.79v-3.81
		c0-2.23-0.64-4.03-1.91-5.4c-1.27-1.36-2.93-2.05-4.98-2.05s-3.69,0.68-4.93,2.05c-1.24,1.37-1.86,3.16-1.86,5.4v33.12
		c0,2.23,0.62,4.03,1.86,5.4c1.24,1.36,2.88,2.05,4.93,2.05s3.71-0.68,4.98-2.05c1.27-1.36,1.91-3.16,1.91-5.4v-8.93
		c0-0.31-0.16-0.47-0.47-0.47h-5.67c-0.31,0-0.57-0.11-0.79-0.33c-0.22-0.22-0.33-0.48-0.33-0.79v-6.79c0-0.31,0.11-0.57,0.33-0.79
		c0.22-0.22,0.48-0.33,0.79-0.33h15.82c0.31,0,0.57,0.11,0.79,0.33c0.22,0.22,0.33,0.48,0.33,0.79v17.21
		c0,5.09-1.63,9.16-4.88,12.23c-3.26,3.07-7.52,4.6-12.79,4.6C510.77,407.86,506.54,406.32,503.35,403.25z"/>
	<path class="st0" d="M588,344.31c2.51,1.61,4.47,3.88,5.86,6.79c1.4,2.92,2.09,6.23,2.09,9.95c0,5.58-1.47,10.08-4.42,13.49
		c-2.95,3.41-6.84,5.12-11.68,5.12h-7.91c-0.31,0-0.46,0.16-0.46,0.47V406c0,0.31-0.11,0.57-0.33,0.79
		c-0.22,0.22-0.48,0.33-0.79,0.33h-8.56c-0.31,0-0.57-0.11-0.79-0.33c-0.22-0.22-0.33-0.48-0.33-0.79v-62.98
		c0-0.31,0.11-0.57,0.33-0.79c0.22-0.22,0.48-0.33,0.79-0.33h17.49C582.59,341.9,585.49,342.7,588,344.31z M583.07,368.55
		c1.4-1.77,2.09-4.17,2.09-7.21c0-3.1-0.7-5.57-2.09-7.4c-1.4-1.83-3.24-2.74-5.54-2.74h-5.58c-0.31,0-0.46,0.16-0.46,0.47v19.07
		c0,0.31,0.15,0.46,0.46,0.46h5.58C579.83,371.2,581.68,370.32,583.07,368.55z"/>
	<path class="st0" d="M607.07,403.02c-3.26-3.22-4.88-7.5-4.88-12.84v-31.26c0-5.33,1.63-9.61,4.88-12.84
		c3.26-3.22,7.55-4.84,12.88-4.84c5.33,0,9.64,1.61,12.93,4.84c3.29,3.23,4.93,7.51,4.93,12.84v31.26c0,5.33-1.64,9.61-4.93,12.84
		c-3.29,3.23-7.6,4.84-12.93,4.84C614.62,407.86,610.33,406.24,607.07,403.02z M625.07,396.37c1.3-1.46,1.95-3.36,1.95-5.72v-32.19
		c0-2.36-0.65-4.26-1.95-5.72c-1.3-1.46-3.01-2.19-5.12-2.19c-2.11,0-3.8,0.73-5.07,2.19c-1.27,1.46-1.91,3.37-1.91,5.72v32.19
		c0,2.36,0.64,4.26,1.91,5.72c1.27,1.46,2.96,2.19,5.07,2.19C622.07,398.55,623.77,397.82,625.07,396.37z"/>
	<path class="st0" d="M647.08,406.79c-0.22-0.22-0.33-0.48-0.33-0.79v-62.89c0-0.31,0.11-0.57,0.33-0.79
		c0.22-0.22,0.48-0.33,0.79-0.33h8.56c0.31,0,0.57,0.11,0.79,0.33c0.22,0.22,0.33,0.48,0.33,0.79v54.24c0,0.31,0.15,0.46,0.46,0.46
		h20.09c0.31,0,0.57,0.11,0.79,0.33c0.22,0.22,0.33,0.48,0.33,0.79V406c0,0.31-0.11,0.57-0.33,0.79c-0.22,0.22-0.48,0.33-0.79,0.33
		h-30.24C647.56,407.11,647.29,407,647.08,406.79z"/>
	<path class="st0" d="M686.66,403.25c-3.16-3.07-4.74-7.15-4.74-12.23v-6.88c0-0.31,0.11-0.57,0.33-0.79
		c0.22-0.22,0.48-0.33,0.79-0.33h8.56c0.31,0,0.57,0.11,0.79,0.33c0.22,0.22,0.33,0.48,0.33,0.79v7.07c0,2.17,0.59,3.94,1.77,5.3
		c1.18,1.36,2.73,2.05,4.65,2.05c1.92,0,3.49-0.68,4.7-2.05c1.21-1.36,1.81-3.13,1.81-5.3v-48.1c0-0.31,0.11-0.57,0.33-0.79
		c0.22-0.22,0.48-0.33,0.79-0.33h8.56c0.31,0,0.57,0.11,0.79,0.33c0.22,0.22,0.33,0.48,0.33,0.79v47.91c0,5.09-1.6,9.16-4.79,12.23
		c-3.2,3.07-7.37,4.6-12.51,4.6C693.98,407.86,689.82,406.32,686.66,403.25z"/>
	<path class="st0" d="M752.06,406.09l-1.77-9.77c0-0.31-0.19-0.47-0.56-0.47h-13.49c-0.37,0-0.56,0.12-0.56,0.37l-1.86,9.86
		c-0.06,0.68-0.47,1.02-1.21,1.02h-8.56c-0.81,0-1.12-0.4-0.93-1.21l13.68-62.89c0.12-0.68,0.53-1.02,1.21-1.02h9.95
		c0.68,0,1.08,0.34,1.21,1.02l13.77,62.89v0.37c0,0.56-0.34,0.84-1.02,0.84h-8.65C752.53,407.11,752.12,406.77,752.06,406.09z
		 M738.01,387.39h10.14c0.37,0,0.53-0.15,0.46-0.47l-5.12-28.1c-0.06-0.19-0.16-0.28-0.28-0.28c-0.12,0-0.22,0.09-0.28,0.28
		l-5.4,28.1C737.49,387.23,737.64,387.39,738.01,387.39z"/>
</g>
</svg>
