<?xml version="1.0" encoding="utf-8"?>
<!-- Generator: Adobe Illustrator 27.2.0, SVG Export Plug-In . SVG Version: 6.00 Build 0)  -->
<svg version="1.1" id="Layer_1" xmlns="http://www.w3.org/2000/svg" xmlns:xlink="http://www.w3.org/1999/xlink" x="0px" y="0px"
	 viewBox="0 0 827.23 427.44" style="enable-background:new 0 0 827.23 427.44;" xml:space="preserve">
<style type="text/css">
	.st0{fill:#27AAE1;}
	.st1{fill:#8DC63F;}
	.st2{fill:#FFFFFF;}
	.st3{fill-rule:evenodd;clip-rule:evenodd;fill:#FFFFFF;}
</style>
<path class="st0" d="M584.21,282.51c2.94-35.08,10.35-109.66,21.55-164.26c-78.46-35.3-115.71-46.18-115.71-46.18l-33.94,31.32
	l1.54-29.71l-80.31-43.65l-61.39,36.48l5.69,82.43l-50.49-13.57c-0.63-0.18-1.22-0.18-1.82-0.05l-0.15-0.22l-0.93,0.69
	c0,0-0.03,0.02-0.03,0.03c-0.04,0.02-0.04,0.02-0.05,0.04l-45.56,22.72c-0.88,0.63-1.37,1.58-1.37,2.66l15.1,121.7
	c-104.02,6.82-166.39,17.3-166.39,17.3s0,0.93,343.69,0.47c343.69-0.47,343.69-0.47,343.69-0.47S692.25,289.31,584.21,282.51z"/>
<g>
	<g>
		<polygon class="st2" points="291.94,164.74 282.93,162.67 282.7,155.58 291.7,157.63 		"/>
		<polygon class="st2" points="305.18,167.45 296.15,165.39 295.92,158.3 304.94,160.36 		"/>
	</g>
	<g>
		<g>
			<polygon class="st2" points="292.62,185.21 283.61,183.15 283.37,176.06 292.38,178.13 			"/>
			<polygon class="st2" points="305.85,187.94 296.83,185.87 296.6,178.78 305.62,180.84 			"/>
		</g>
	</g>
	<g>
		<g>
			<polygon class="st2" points="293.29,205.71 284.29,203.64 284.05,196.54 293.06,198.62 			"/>
			<polygon class="st2" points="306.54,208.43 297.51,206.36 297.28,199.26 306.3,201.34 			"/>
		</g>
	</g>
	<g>
		<g>
			<polygon class="st2" points="293.97,226.19 284.96,224.11 284.73,217.04 293.74,219.11 			"/>
			<polygon class="st2" points="307.21,228.91 298.19,226.84 297.95,219.74 306.98,221.82 			"/>
		</g>
	</g>
	<g>
		<g>
			<polygon class="st2" points="294.65,246.68 285.64,244.61 285.41,237.52 294.42,239.57 			"/>
			<polygon class="st2" points="307.89,249.39 298.86,247.32 298.63,240.23 307.66,242.3 			"/>
		</g>
	</g>
	<g>
		<g>
			<polygon class="st2" points="295.33,267.18 286.32,265.09 286.08,258 295.1,260.07 			"/>
			<polygon class="st2" points="308.57,269.89 299.55,267.82 299.31,260.73 308.34,262.8 			"/>
		</g>
	</g>
	<g>
		<polygon class="st3" points="331.24,76.27 343.43,68.29 343.76,80.34 331.57,88.03 		"/>
		<polygon class="st3" points="332.22,111.21 344.41,104.06 344.74,116.12 332.55,123.01 		"/>
		<polygon class="st3" points="351.53,99.53 363.74,91.44 364.07,103.99 351.85,111.51 		"/>
		<polygon class="st3" points="350.61,65.62 362.83,56.83 363.15,69.29 350.93,77.59 		"/>
		<polygon class="st3" points="333.2,146.24 345.38,139.89 345.71,152 333.52,158.1 		"/>
		<polygon class="st3" points="352.5,135.81 364.71,128.59 365.04,141.2 352.82,147.88 		"/>
		<polygon class="st3" points="334.08,178.03 346.26,172.35 346.59,184.56 334.4,189.87 		"/>
		<polygon class="st3" points="353.38,168.76 365.6,162.29 365.92,174.89 353.7,180.88 		"/>
		<polygon class="st3" points="335.05,213.32 347.24,208.47 347.57,220.68 335.38,225.25 		"/>
		<polygon class="st3" points="354.36,205.36 366.57,199.66 366.9,212.29 354.68,217.51 		"/>
		<polygon class="st3" points="336.03,248.7 348.22,244.72 348.54,256.97 336.36,260.74 		"/>
		<polygon class="st3" points="355.33,242.06 367.55,237.18 367.88,249.91 355.65,254.25 		"/>
	</g>
	<g>
		<g>
			<polygon class="st3" points="419.29,71.97 406.88,63.98 406.88,76.35 419.29,84.09 			"/>
			<polygon class="st3" points="419.29,107.9 406.88,100.66 406.88,112.99 419.29,120.01 			"/>
			<polygon class="st3" points="399.63,96.12 387.18,88.1 387.18,100.88 399.63,108.36 			"/>
			<polygon class="st3" points="399.63,61.4 387.18,52.74 387.18,65.48 399.63,73.67 			"/>
			<polygon class="st3" points="419.29,143.79 406.88,137.26 406.88,149.61 419.29,155.91 			"/>
			<polygon class="st3" points="399.63,133.13 387.18,125.9 387.18,138.71 399.63,145.43 			"/>
			<polygon class="st3" points="419.29,176.25 406.88,170.31 406.88,182.71 419.29,188.3 			"/>
			<polygon class="st3" points="399.63,166.63 387.18,160.09 387.18,172.84 399.63,178.93 			"/>
			<polygon class="st3" points="419.29,212.14 406.88,206.97 406.88,219.32 419.29,224.25 			"/>
			<polygon class="st3" points="399.63,203.72 387.18,197.87 387.18,210.61 399.63,216 			"/>
			<polygon class="st3" points="419.29,247.99 406.88,243.61 406.88,255.97 419.29,260.16 			"/>
			<polygon class="st3" points="399.63,240.77 387.18,235.67 387.18,248.47 399.63,253.04 			"/>
		</g>
		<g>
			<polygon class="st3" points="438.69,82.6 426.27,75.04 426.27,87.04 438.69,94.34 			"/>
			<polygon class="st3" points="438.69,117.4 426.27,110.58 426.27,122.53 438.69,129.14 			"/>
			<polygon class="st3" points="438.69,152.18 426.27,146.05 426.27,158.02 438.69,163.91 			"/>
			<polygon class="st3" points="438.69,183.61 426.27,178.08 426.27,190.1 438.69,195.29 			"/>
			<polygon class="st3" points="438.69,218.38 426.27,213.59 426.27,225.56 438.69,230.11 			"/>
			<polygon class="st3" points="438.69,253.11 426.27,249.1 426.27,261.07 438.69,264.9 			"/>
		</g>
	</g>
	<g>
		<polygon class="st3" points="233.73,167.9 240.61,163.94 241.36,171.37 234.47,175.22 		"/>
		<polygon class="st3" points="235.94,189.63 242.84,186.01 243.59,193.47 236.68,196.98 		"/>
		<polygon class="st3" points="246.86,183.71 253.76,179.6 254.52,187.26 247.6,191.08 		"/>
		<polygon class="st3" points="244.77,162.87 251.65,158.5 252.41,166.09 245.51,170.22 		"/>
		<polygon class="st3" points="238.15,211.44 245.07,208.16 245.82,215.65 238.9,218.83 		"/>
		<polygon class="st3" points="249.1,206.03 256.01,202.28 256.78,209.97 249.84,213.47 		"/>
		<polygon class="st3" points="240.15,231.26 247.09,228.24 247.84,235.8 240.9,238.64 		"/>
		<polygon class="st3" points="251.13,226.32 258.06,222.87 258.82,230.56 251.88,233.79 		"/>
		<polygon class="st3" points="242.37,253.29 249.33,250.62 250.09,258.18 243.13,260.74 		"/>
		<polygon class="st3" points="253.38,248.88 260.32,245.71 261.09,253.44 254.13,256.37 		"/>
		<polygon class="st3" points="244.6,275.4 251.57,273.09 252.34,280.7 245.36,282.93 		"/>
		<polygon class="st3" points="255.63,271.53 262.59,268.66 263.36,276.45 256.39,279.06 		"/>
	</g>
	<g>
		<polygon class="st2" points="502.46,89.06 500.87,105.77 540.64,119.69 541.73,104.43 		"/>
		<polygon class="st2" points="591.53,137.51 593.51,124.69 550.76,107.97 549.63,122.84 		"/>
		<polygon class="st2" points="499.25,126.25 498.26,143 538.06,155.81 539.14,140.75 		"/>
		<polygon class="st2" points="587.19,171.64 588.68,158.76 548.04,143.99 546.93,158.67 		"/>
		<polygon class="st2" points="583.61,201.68 584.79,188.42 545.63,175.92 544.51,190.72 		"/>
		<polygon class="st2" points="496.87,160.36 496.02,177.12 535.74,188.26 536.83,173.11 		"/>
		<polygon class="st2" points="494.14,196.54 492.75,212.38 533.43,220.73 534.47,206.03 		"/>
		<polygon class="st2" points="581.43,230.58 582.32,217.3 543.2,208.09 542.11,222.51 		"/>
		<polygon class="st2" points="491.6,232.01 490.18,248.91 530.94,255.48 532.05,240.03 		"/>
		<polygon class="st2" points="579.25,263.26 580.3,249.6 540.66,241.74 539.51,256.86 		"/>
	</g>
	<g>
		<g>
			<polygon class="st3" points="453.12,120.81 481.6,97.08 481.54,109.35 453.06,130.23 			"/>
			<polygon class="st3" points="452.94,151.59 481.42,133.55 481.36,142.94 452.88,160.99 			"/>
			<polygon class="st3" points="452.59,184.79 481.07,166.69 481.01,176.14 452.53,194.15 			"/>
			<polygon class="st3" points="452.41,218.37 480.89,200.3 480.82,209.7 452.35,227.77 			"/>
			<polygon class="st3" points="452.23,251.91 480.71,236.72 480.64,246.13 452.16,261.37 			"/>
		</g>
	</g>
</g>
<g>
	<path class="st1" d="M81.92,402.94c-4.48-4.83-6.72-11.2-6.72-19.11v-64.44c0-0.43,0.15-0.8,0.46-1.11c0.3-0.3,0.67-0.46,1.11-0.46
		h12c0.43,0,0.8,0.15,1.11,0.46c0.3,0.31,0.46,0.67,0.46,1.11v66c0,3.48,0.87,6.31,2.61,8.48c1.74,2.17,4.04,3.26,6.91,3.26
		s5.17-1.09,6.91-3.26c1.74-2.17,2.61-5,2.61-8.48v-66c0-0.43,0.15-0.8,0.46-1.11c0.3-0.3,0.67-0.46,1.11-0.46h12
		c0.43,0,0.8,0.15,1.11,0.46c0.3,0.31,0.46,0.67,0.46,1.11v64.44c0,7.91-2.26,14.28-6.78,19.11c-4.52,4.83-10.48,7.24-17.87,7.24
		C92.37,410.18,86.39,407.76,81.92,402.94z"/>
	<path class="st1" d="M148.31,408.68c-0.31-0.3-0.46-0.67-0.46-1.11v-88.18c0-0.43,0.15-0.8,0.46-1.11c0.3-0.3,0.67-0.46,1.11-0.46
		h12c0.43,0,0.8,0.15,1.11,0.46c0.3,0.31,0.46,0.67,0.46,1.11v76.05c0,0.44,0.22,0.65,0.65,0.65h28.17c0.43,0,0.8,0.15,1.11,0.46
		c0.3,0.31,0.46,0.67,0.46,1.11v9.91c0,0.44-0.15,0.8-0.46,1.11c-0.31,0.31-0.67,0.46-1.11,0.46h-42.39
		C148.98,409.13,148.61,408.98,148.31,408.68z"/>
	<path class="st1" d="M252.33,407.7l-2.48-13.7c0-0.43-0.26-0.65-0.78-0.65h-18.91c-0.52,0-0.78,0.18-0.78,0.52l-2.61,13.83
		c-0.09,0.96-0.65,1.43-1.7,1.43h-12c-1.13,0-1.56-0.56-1.3-1.7l19.17-88.18c0.17-0.96,0.74-1.43,1.7-1.43h13.96
		c0.96,0,1.52,0.48,1.7,1.43l19.3,88.18v0.52c0,0.78-0.48,1.17-1.44,1.17h-12.13C252.98,409.13,252.42,408.66,252.33,407.7z
		 M232.63,381.48h14.22c0.52,0,0.74-0.22,0.65-0.65l-7.17-39.39c-0.09-0.26-0.22-0.39-0.39-0.39c-0.18,0-0.31,0.13-0.39,0.39
		l-7.57,39.39C231.89,381.26,232.11,381.48,232.63,381.48z"/>
	<path class="st1" d="M284.74,408.68c-0.31-0.3-0.46-0.67-0.46-1.11v-10.44c0-0.7,0.13-1.35,0.39-1.96l29.22-63.52
		c0.09-0.17,0.09-0.35,0-0.52c-0.09-0.17-0.22-0.26-0.39-0.26h-27.65c-0.44,0-0.81-0.15-1.11-0.46c-0.31-0.3-0.46-0.67-0.46-1.11
		v-9.91c0-0.43,0.15-0.8,0.46-1.11c0.3-0.3,0.67-0.46,1.11-0.46h42.78c0.43,0,0.8,0.15,1.11,0.46c0.3,0.31,0.46,0.67,0.46,1.11
		v10.44c0,0.61-0.13,1.26-0.39,1.96l-29.22,63.52c-0.09,0.18-0.09,0.35,0,0.52c0.09,0.18,0.22,0.26,0.39,0.26h27.65
		c0.43,0,0.8,0.15,1.11,0.46c0.3,0.31,0.46,0.67,0.46,1.11v9.91c0,0.44-0.15,0.8-0.46,1.11c-0.31,0.31-0.67,0.46-1.11,0.46h-42.78
		C285.42,409.13,285.05,408.98,284.74,408.68z"/>
	<path class="st1" d="M351.27,408.68c-0.31-0.3-0.46-0.67-0.46-1.11v-88.18c0-0.43,0.15-0.8,0.46-1.11c0.3-0.3,0.67-0.46,1.11-0.46
		h12c0.43,0,0.8,0.15,1.11,0.46c0.3,0.31,0.46,0.67,0.46,1.11v88.18c0,0.44-0.15,0.8-0.46,1.11c-0.31,0.31-0.67,0.46-1.11,0.46h-12
		C351.94,409.13,351.57,408.98,351.27,408.68z"/>
	<path class="st0" d="M468.4,402.61c-4.65,4.35-10.72,6.52-18.2,6.52h-22.96c-0.44,0-0.81-0.15-1.11-0.46
		c-0.31-0.3-0.46-0.67-0.46-1.11v-88.18c0-0.43,0.15-0.8,0.46-1.11c0.3-0.3,0.67-0.46,1.11-0.46h20.61c8.26,0,14.74,2.09,19.44,6.26
		s7.04,10.26,7.04,18.26c0,8.96-3.18,15.35-9.52,19.17c-0.44,0.26-0.52,0.52-0.26,0.78c3.39,2.17,6.04,5.09,7.96,8.74
		c1.91,3.65,2.87,8,2.87,13.04C475.38,392.09,473.05,398.26,468.4,402.61z M440.81,331.52v24.26c0,0.44,0.22,0.65,0.65,0.65h6.65
		c3.56,0,6.35-1.09,8.35-3.26c2-2.17,3-5.26,3-9.26c0-4.17-1-7.39-3-9.65c-2-2.26-4.78-3.39-8.35-3.39h-6.65
		C441.03,330.87,440.81,331.09,440.81,331.52z M457.25,392.31c2-2.43,3-5.87,3-10.3c0-4.52-1-8.06-3-10.63
		c-2-2.56-4.74-3.85-8.22-3.85h-7.57c-0.44,0-0.65,0.22-0.65,0.65v27.13c0,0.44,0.22,0.65,0.65,0.65h7.57
		C452.51,395.96,455.25,394.74,457.25,392.31z"/>
	<path class="st0" d="M501.92,402.94c-4.48-4.83-6.72-11.2-6.72-19.11v-64.44c0-0.43,0.15-0.8,0.46-1.11
		c0.3-0.3,0.67-0.46,1.11-0.46h12c0.43,0,0.8,0.15,1.11,0.46c0.3,0.31,0.46,0.67,0.46,1.11v66c0,3.48,0.87,6.31,2.61,8.48
		c1.74,2.17,4.04,3.26,6.91,3.26s5.17-1.09,6.91-3.26c1.74-2.17,2.61-5,2.61-8.48v-66c0-0.43,0.15-0.8,0.46-1.11
		c0.3-0.3,0.67-0.46,1.11-0.46h12c0.43,0,0.8,0.15,1.11,0.46c0.3,0.31,0.46,0.67,0.46,1.11v64.44c0,7.91-2.26,14.28-6.78,19.11
		c-4.52,4.83-10.48,7.24-17.87,7.24C512.38,410.18,506.4,407.76,501.92,402.94z"/>
	<path class="st0" d="M567.14,408.68c-0.31-0.3-0.46-0.67-0.46-1.11v-88.18c0-0.43,0.15-0.8,0.46-1.11c0.3-0.3,0.67-0.46,1.11-0.46
		h22.31c7.48,0,13.46,2.26,17.94,6.78c4.48,4.52,6.72,10.57,6.72,18.13v41.48c0,7.57-2.24,13.61-6.72,18.13
		c-4.48,4.52-10.46,6.78-17.94,6.78h-22.31C567.81,409.13,567.44,408.98,567.14,408.68z M582.47,396.09l7.83-0.13
		c2.87,0,5.2-1.15,6.98-3.46c1.78-2.3,2.72-5.37,2.8-9.2v-39.65c0-3.91-0.89-7.02-2.67-9.33c-1.78-2.3-4.2-3.46-7.24-3.46h-7.7
		c-0.44,0-0.65,0.22-0.65,0.65v63.91C581.82,395.87,582.03,396.09,582.47,396.09z"/>
	<path class="st0" d="M650.56,407.7l-18.65-88.18l-0.13-0.52c0-0.78,0.48-1.17,1.43-1.17h13.17c1.04,0,1.61,0.48,1.7,1.43L658.9,382
		c0.09,0.26,0.22,0.39,0.39,0.39c0.17,0,0.3-0.13,0.39-0.39l10.57-62.74c0.09-0.96,0.65-1.43,1.7-1.43h12.78
		c1.13,0,1.56,0.57,1.3,1.7l-18.78,88.18c-0.18,0.96-0.74,1.43-1.7,1.43h-13.31C651.29,409.13,650.73,408.66,650.56,407.7z"/>
	<path class="st0" d="M751.58,330.41c-0.31,0.31-0.67,0.46-1.11,0.46H722.3c-0.44,0-0.65,0.22-0.65,0.65v24.65
		c0,0.44,0.22,0.65,0.65,0.65h16.7c0.43,0,0.8,0.15,1.11,0.46c0.3,0.31,0.46,0.67,0.46,1.11v10.04c0,0.44-0.15,0.8-0.46,1.11
		c-0.31,0.31-0.67,0.46-1.11,0.46h-16.7c-0.44,0-0.65,0.22-0.65,0.65v24.78c0,0.44,0.22,0.65,0.65,0.65h28.17
		c0.43,0,0.8,0.15,1.11,0.46c0.3,0.31,0.46,0.67,0.46,1.11v9.91c0,0.44-0.15,0.8-0.46,1.11c-0.31,0.31-0.67,0.46-1.11,0.46h-42.39
		c-0.44,0-0.81-0.15-1.11-0.46c-0.31-0.3-0.46-0.67-0.46-1.11v-88.18c0-0.43,0.15-0.8,0.46-1.11c0.3-0.3,0.67-0.46,1.11-0.46h42.39
		c0.43,0,0.8,0.15,1.11,0.46c0.3,0.31,0.46,0.67,0.46,1.11v9.91C752.04,329.74,751.88,330.11,751.58,330.41z"/>
</g>
</svg>
