<?xml version="1.0" encoding="utf-8"?>
<!-- Generator: Adobe Illustrator 27.2.0, SVG Export Plug-In . SVG Version: 6.00 Build 0)  -->
<svg version="1.1" id="Layer_1" xmlns="http://www.w3.org/2000/svg" xmlns:xlink="http://www.w3.org/1999/xlink" x="0px" y="0px"
	 viewBox="0 0 827.23 427.44" style="enable-background:new 0 0 827.23 427.44;" xml:space="preserve">
<style type="text/css">
	.st0{fill:#27AAE1;}
	.st1{fill:#8DC63F;}
	.st2{fill:#FFFFFF;}
	.st3{fill-rule:evenodd;clip-rule:evenodd;fill:#FFFFFF;}
</style>
<path class="st0" d="M583.41,281.58c2.92-34.91,10.3-109.15,21.45-163.49c-78.09-35.14-115.17-45.97-115.17-45.97l-33.78,31.17
	l1.53-29.58L377.5,30.27l-61.1,36.31l5.66,82.05l-50.25-13.5c-0.62-0.18-1.21-0.18-1.82-0.05l-0.14-0.22l-0.92,0.69
	c0,0-0.03,0.02-0.03,0.03c-0.04,0.02-0.04,0.02-0.05,0.04l-45.35,22.61c-0.87,0.63-1.37,1.57-1.37,2.65l15.03,121.13
	c-103.54,6.79-165.62,17.21-165.62,17.21s0,0.93,342.09,0.46c342.08-0.46,342.08-0.46,342.08-0.46S690.95,288.35,583.41,281.58z"/>
<g>
	<g>
		<polygon class="st2" points="292.51,164.35 283.54,162.3 283.31,155.24 292.27,157.28 		"/>
		<polygon class="st2" points="305.68,167.05 296.7,165 296.47,157.95 305.45,160 		"/>
	</g>
	<g>
		<g>
			<polygon class="st2" points="293.18,184.73 284.22,182.68 283.98,175.63 292.95,177.69 			"/>
			<polygon class="st2" points="306.36,187.45 297.38,185.39 297.14,178.33 306.13,180.38 			"/>
		</g>
	</g>
	<g>
		<g>
			<polygon class="st2" points="293.86,205.14 284.89,203.07 284.66,196.01 293.62,198.08 			"/>
			<polygon class="st2" points="307.04,207.84 298.05,205.78 297.82,198.72 306.8,200.78 			"/>
		</g>
	</g>
	<g>
		<g>
			<polygon class="st2" points="294.53,225.52 285.57,223.45 285.33,216.42 294.3,218.48 			"/>
			<polygon class="st2" points="307.71,228.22 298.73,226.17 298.49,219.1 307.48,221.17 			"/>
		</g>
	</g>
	<g>
		<g>
			<polygon class="st2" points="295.21,245.91 286.24,243.85 286.01,236.8 294.97,238.84 			"/>
			<polygon class="st2" points="308.39,248.61 299.4,246.55 299.17,239.5 308.15,241.55 			"/>
		</g>
	</g>
	<g>
		<g>
			<polygon class="st2" points="295.88,266.32 286.92,264.24 286.68,257.18 295.65,259.24 			"/>
			<polygon class="st2" points="309.06,269.01 300.08,266.95 299.84,259.9 308.83,261.95 			"/>
		</g>
	</g>
	<g>
		<polygon class="st3" points="331.63,76.3 343.76,68.35 344.09,80.36 331.96,88.01 		"/>
		<polygon class="st3" points="332.6,111.07 344.73,103.96 345.06,115.96 332.93,122.83 		"/>
		<polygon class="st3" points="351.82,99.46 363.97,91.4 364.3,103.89 352.14,111.38 		"/>
		<polygon class="st3" points="350.9,65.7 363.07,56.95 363.39,69.35 351.23,77.62 		"/>
		<polygon class="st3" points="333.57,145.95 345.7,139.62 346.03,151.67 333.9,157.75 		"/>
		<polygon class="st3" points="352.79,135.56 364.94,128.38 365.27,140.92 353.1,147.58 		"/>
		<polygon class="st3" points="334.45,177.59 346.58,171.93 346.91,184.08 334.77,189.37 		"/>
		<polygon class="st3" points="353.66,168.36 365.82,161.92 366.15,174.46 353.98,180.42 		"/>
		<polygon class="st3" points="335.42,212.71 347.55,207.88 347.88,220.04 335.75,224.59 		"/>
		<polygon class="st3" points="354.63,204.79 366.79,199.11 367.12,211.68 354.96,216.88 		"/>
		<polygon class="st3" points="336.39,247.92 348.52,243.97 348.85,256.16 336.72,259.91 		"/>
		<polygon class="st3" points="355.6,241.31 367.76,236.46 368.09,249.13 355.92,253.45 		"/>
	</g>
	<g>
		<g>
			<polygon class="st3" points="419.27,72.02 406.91,64.07 406.91,76.38 419.27,84.08 			"/>
			<polygon class="st3" points="419.27,107.78 406.91,100.58 406.91,112.85 419.27,119.84 			"/>
			<polygon class="st3" points="399.69,96.06 387.3,88.07 387.3,100.8 399.69,108.24 			"/>
			<polygon class="st3" points="399.69,61.5 387.3,52.88 387.3,65.56 399.69,73.71 			"/>
			<polygon class="st3" points="419.27,143.51 406.91,137.01 406.91,149.3 419.27,155.57 			"/>
			<polygon class="st3" points="399.69,132.9 387.3,125.7 387.3,138.45 399.69,145.13 			"/>
			<polygon class="st3" points="419.27,175.81 406.91,169.9 406.91,182.25 419.27,187.81 			"/>
			<polygon class="st3" points="399.69,166.24 387.3,159.73 387.3,172.42 399.69,178.48 			"/>
			<polygon class="st3" points="419.27,211.53 406.91,206.39 406.91,218.68 419.27,223.59 			"/>
			<polygon class="st3" points="399.69,203.15 387.3,197.33 387.3,210.02 399.69,215.37 			"/>
			<polygon class="st3" points="419.27,247.22 406.91,242.86 406.91,255.16 419.27,259.33 			"/>
			<polygon class="st3" points="399.69,240.03 387.3,234.96 387.3,247.7 399.69,252.25 			"/>
		</g>
		<g>
			<polygon class="st3" points="438.57,82.6 426.21,75.08 426.21,87.02 438.57,94.28 			"/>
			<polygon class="st3" points="438.57,117.24 426.21,110.46 426.21,122.35 438.57,128.92 			"/>
			<polygon class="st3" points="438.57,151.85 426.21,145.76 426.21,157.66 438.57,163.53 			"/>
			<polygon class="st3" points="438.57,183.14 426.21,177.63 426.21,189.59 438.57,194.76 			"/>
			<polygon class="st3" points="438.57,217.74 426.21,212.98 426.21,224.9 438.57,229.42 			"/>
			<polygon class="st3" points="438.57,252.31 426.21,248.32 426.21,260.23 438.57,264.05 			"/>
		</g>
	</g>
	<g>
		<polygon class="st3" points="234.57,167.5 241.42,163.56 242.17,170.96 235.31,174.78 		"/>
		<polygon class="st3" points="236.77,189.13 243.64,185.53 244.39,192.95 237.51,196.44 		"/>
		<polygon class="st3" points="247.64,183.23 254.5,179.15 255.27,186.77 248.38,190.57 		"/>
		<polygon class="st3" points="245.56,162.5 252.41,158.14 253.16,165.7 246.29,169.81 		"/>
		<polygon class="st3" points="238.97,210.84 245.86,207.57 246.61,215.02 239.71,218.19 		"/>
		<polygon class="st3" points="249.87,205.45 256.75,201.72 257.52,209.38 250.61,212.86 		"/>
		<polygon class="st3" points="240.96,230.56 247.87,227.56 248.62,235.09 241.71,237.91 		"/>
		<polygon class="st3" points="251.89,225.65 258.79,222.21 259.55,229.87 252.63,233.09 		"/>
		<polygon class="st3" points="243.17,252.49 250.1,249.84 250.85,257.36 243.93,259.91 		"/>
		<polygon class="st3" points="254.13,248.1 261.04,244.94 261.8,252.64 254.87,255.56 		"/>
		<polygon class="st3" points="245.39,274.5 252.33,272.2 253.09,279.77 246.15,281.99 		"/>
		<polygon class="st3" points="256.37,270.65 263.3,267.79 264.06,275.55 257.12,278.14 		"/>
	</g>
	<g>
		<polygon class="st2" points="502.04,89.03 500.46,105.66 540.04,119.52 541.13,104.33 		"/>
		<polygon class="st2" points="590.7,137.25 592.67,124.5 550.12,107.85 549,122.65 		"/>
		<polygon class="st2" points="498.85,126.04 497.86,142.71 537.48,155.47 538.55,140.48 		"/>
		<polygon class="st2" points="586.37,171.22 587.86,158.41 547.41,143.7 546.31,158.32 		"/>
		<polygon class="st2" points="582.81,201.13 583.99,187.93 545.01,175.49 543.9,190.21 		"/>
		<polygon class="st2" points="496.48,159.99 495.64,176.67 535.17,187.77 536.25,172.69 		"/>
		<polygon class="st2" points="493.76,196.01 492.38,211.78 532.87,220.08 533.91,205.46 		"/>
		<polygon class="st2" points="580.64,229.89 581.54,216.67 542.59,207.5 541.51,221.86 		"/>
		<polygon class="st2" points="491.24,231.31 489.82,248.14 530.4,254.67 531.49,239.29 		"/>
		<polygon class="st2" points="578.48,262.41 579.52,248.82 540.06,241 538.92,256.05 		"/>
	</g>
	<g>
		<g>
			<polygon class="st3" points="452.94,120.63 481.28,97.01 481.22,109.22 452.88,130 			"/>
			<polygon class="st3" points="452.76,151.27 481.1,133.31 481.04,142.66 452.7,160.63 			"/>
			<polygon class="st3" points="452.41,184.31 480.76,166.3 480.69,175.7 452.35,193.63 			"/>
			<polygon class="st3" points="452.23,217.73 480.57,199.75 480.51,209.11 452.17,227.09 			"/>
			<polygon class="st3" points="452.05,251.12 480.39,236 480.33,245.37 451.98,260.53 			"/>
		</g>
	</g>
</g>
<g>
	<path class="st1" d="M190.63,402.22c-3.9-4.2-5.84-9.74-5.84-16.62v-56.05c0-0.38,0.13-0.7,0.4-0.96c0.26-0.26,0.59-0.4,0.96-0.4
		h10.44c0.38,0,0.7,0.13,0.97,0.4c0.26,0.27,0.4,0.59,0.4,0.96v57.41c0,3.03,0.76,5.48,2.27,7.37c1.51,1.89,3.52,2.84,6.01,2.84
		c2.5,0,4.5-0.94,6.01-2.84c1.51-1.89,2.27-4.35,2.27-7.37v-57.41c0-0.38,0.13-0.7,0.4-0.96c0.26-0.26,0.59-0.4,0.96-0.4h10.44
		c0.38,0,0.7,0.13,0.96,0.4c0.26,0.27,0.4,0.59,0.4,0.96v56.05c0,6.88-1.97,12.42-5.9,16.62c-3.93,4.2-9.12,6.3-15.54,6.3
		C199.72,408.52,194.52,406.42,190.63,402.22z"/>
	<path class="st1" d="M239.87,407.21c-0.27-0.26-0.4-0.59-0.4-0.96v-76.69c0-0.38,0.13-0.7,0.4-0.96c0.26-0.26,0.59-0.4,0.96-0.4
		h10.44c0.38,0,0.7,0.13,0.97,0.4c0.26,0.27,0.4,0.59,0.4,0.96v66.14c0,0.38,0.19,0.57,0.57,0.57h24.51c0.38,0,0.7,0.13,0.96,0.4
		c0.26,0.27,0.4,0.59,0.4,0.96v8.62c0,0.38-0.13,0.7-0.4,0.96c-0.27,0.27-0.59,0.4-0.96,0.4h-36.87
		C240.45,407.61,240.13,407.48,239.87,407.21z"/>
	<path class="st1" d="M321.83,406.36l-2.16-11.91c0-0.38-0.23-0.57-0.68-0.57h-16.45c-0.45,0-0.68,0.15-0.68,0.45l-2.27,12.03
		c-0.08,0.83-0.57,1.25-1.48,1.25h-10.44c-0.98,0-1.36-0.49-1.14-1.47l16.68-76.69c0.15-0.83,0.64-1.25,1.47-1.25h12.14
		c0.83,0,1.32,0.42,1.48,1.25l16.79,76.69v0.45c0,0.68-0.42,1.02-1.25,1.02h-10.55C322.4,407.61,321.91,407.19,321.83,406.36z
		 M304.7,383.56h12.37c0.45,0,0.64-0.19,0.57-0.57l-6.24-34.26c-0.08-0.23-0.19-0.34-0.34-0.34c-0.15,0-0.27,0.11-0.34,0.34
		l-6.58,34.26C304.06,383.37,304.25,383.56,304.7,383.56z"/>
	<path class="st1" d="M341.52,407.21c-0.27-0.26-0.4-0.59-0.4-0.96v-9.08c0-0.6,0.11-1.17,0.34-1.7l25.41-55.25
		c0.07-0.15,0.07-0.3,0-0.45c-0.08-0.15-0.19-0.23-0.34-0.23h-24.05c-0.38,0-0.7-0.13-0.96-0.4c-0.27-0.26-0.4-0.58-0.4-0.96v-8.62
		c0-0.38,0.13-0.7,0.4-0.96c0.26-0.26,0.59-0.4,0.96-0.4h37.21c0.38,0,0.7,0.13,0.96,0.4c0.26,0.27,0.4,0.59,0.4,0.96v9.08
		c0,0.53-0.11,1.1-0.34,1.7l-25.41,55.25c-0.08,0.15-0.08,0.3,0,0.45c0.07,0.15,0.19,0.23,0.34,0.23h24.05c0.38,0,0.7,0.13,0.96,0.4
		c0.26,0.27,0.4,0.59,0.4,0.96v8.62c0,0.38-0.13,0.7-0.4,0.96c-0.27,0.27-0.59,0.4-0.96,0.4h-37.21
		C342.1,407.61,341.78,407.48,341.52,407.21z"/>
	<path class="st1" d="M390.87,407.21c-0.27-0.26-0.4-0.59-0.4-0.96v-76.69c0-0.38,0.13-0.7,0.4-0.96c0.26-0.26,0.58-0.4,0.96-0.4
		h10.44c0.38,0,0.7,0.13,0.96,0.4c0.26,0.27,0.4,0.59,0.4,0.96v76.69c0,0.38-0.13,0.7-0.4,0.96c-0.27,0.27-0.59,0.4-0.96,0.4h-10.44
		C391.45,407.61,391.13,407.48,390.87,407.21z"/>
	<path class="st0" d="M475.73,401.94c-4.05,3.78-9.32,5.67-15.83,5.67h-19.97c-0.38,0-0.7-0.13-0.96-0.4
		c-0.27-0.26-0.4-0.59-0.4-0.96v-76.69c0-0.38,0.13-0.7,0.4-0.96c0.26-0.26,0.58-0.4,0.96-0.4h17.93c7.18,0,12.82,1.82,16.9,5.45
		c4.08,3.63,6.13,8.93,6.13,15.88c0,7.79-2.76,13.35-8.28,16.68c-0.38,0.23-0.45,0.45-0.23,0.68c2.95,1.89,5.26,4.42,6.92,7.6
		c1.66,3.18,2.5,6.96,2.5,11.35C481.8,392.78,479.78,398.15,475.73,401.94z M451.74,340.1v21.1c0,0.38,0.19,0.57,0.57,0.57h5.79
		c3.1,0,5.52-0.95,7.26-2.84c1.74-1.89,2.61-4.58,2.61-8.05c0-3.63-0.87-6.43-2.61-8.4c-1.74-1.97-4.16-2.95-7.26-2.95h-5.79
		C451.92,339.54,451.74,339.73,451.74,340.1z M466.03,392.97c1.74-2.12,2.61-5.11,2.61-8.96c0-3.93-0.87-7.01-2.61-9.25
		c-1.74-2.23-4.12-3.35-7.15-3.35h-6.58c-0.38,0-0.57,0.19-0.57,0.57v23.6c0,0.38,0.19,0.57,0.57,0.57h6.58
		C461.91,396.15,464.29,395.09,466.03,392.97z"/>
	<path class="st0" d="M521.06,406.36l-2.16-11.91c0-0.38-0.23-0.57-0.68-0.57h-16.45c-0.45,0-0.68,0.15-0.68,0.45l-2.27,12.03
		c-0.08,0.83-0.57,1.25-1.47,1.25h-10.44c-0.98,0-1.36-0.49-1.13-1.47l16.68-76.69c0.15-0.83,0.64-1.25,1.48-1.25h12.14
		c0.83,0,1.32,0.42,1.47,1.25l16.79,76.69v0.45c0,0.68-0.42,1.02-1.25,1.02h-10.55C521.62,407.61,521.13,407.19,521.06,406.36z
		 M503.92,383.56h12.37c0.45,0,0.64-0.19,0.57-0.57l-6.24-34.26c-0.08-0.23-0.19-0.34-0.34-0.34c-0.15,0-0.27,0.11-0.34,0.34
		l-6.58,34.26C503.28,383.37,503.47,383.56,503.92,383.56z"/>
	<path class="st0" d="M573.58,406.47l-9.76-32.67c-0.15-0.3-0.34-0.45-0.57-0.45h-5.9c-0.38,0-0.57,0.19-0.57,0.57v32.33
		c0,0.38-0.13,0.7-0.4,0.96c-0.27,0.27-0.59,0.4-0.96,0.4h-10.44c-0.38,0-0.7-0.13-0.96-0.4c-0.27-0.26-0.4-0.59-0.4-0.96v-76.81
		c0-0.38,0.13-0.7,0.4-0.96c0.26-0.26,0.58-0.4,0.96-0.4h21.33c4.01,0,7.55,0.96,10.61,2.89c3.06,1.93,5.45,4.65,7.15,8.17
		c1.7,3.52,2.55,7.54,2.55,12.08c0,4.69-0.91,8.76-2.72,12.2c-1.81,3.44-4.35,6.03-7.6,7.77c-0.3,0.08-0.42,0.3-0.34,0.68
		l11.12,34.15c0.07,0.15,0.11,0.34,0.11,0.57c0,0.68-0.42,1.02-1.25,1.02h-10.89C574.3,407.61,573.81,407.23,573.58,406.47z
		 M556.79,339.99v22.58c0,0.38,0.19,0.57,0.57,0.57h6.92c2.72,0,4.94-1.06,6.64-3.18c1.7-2.12,2.55-4.95,2.55-8.51
		c0-3.71-0.85-6.64-2.55-8.79c-1.7-2.16-3.91-3.23-6.64-3.23h-6.92C556.98,339.42,556.79,339.61,556.79,339.99z"/>
	<path class="st0" d="M629.18,406.36l-2.16-11.91c0-0.38-0.23-0.57-0.68-0.57h-16.45c-0.45,0-0.68,0.15-0.68,0.45l-2.27,12.03
		c-0.08,0.83-0.57,1.25-1.47,1.25h-10.44c-0.98,0-1.36-0.49-1.13-1.47l16.68-76.69c0.15-0.83,0.64-1.25,1.48-1.25h12.14
		c0.83,0,1.32,0.42,1.47,1.25l16.79,76.69v0.45c0,0.68-0.42,1.02-1.25,1.02h-10.55C629.74,407.61,629.25,407.19,629.18,406.36z
		 M612.04,383.56h12.37c0.45,0,0.64-0.19,0.57-0.57l-6.24-34.26c-0.08-0.23-0.19-0.34-0.34-0.34c-0.15,0-0.27,0.11-0.34,0.34
		l-6.58,34.26C611.4,383.37,611.59,383.56,612.04,383.56z"/>
</g>
</svg>
