<?xml version="1.0" encoding="utf-8"?>
<!-- Generator: Adobe Illustrator 27.2.0, SVG Export Plug-In . SVG Version: 6.00 Build 0)  -->
<svg version="1.1" id="Layer_1" xmlns="http://www.w3.org/2000/svg" xmlns:xlink="http://www.w3.org/1999/xlink" x="0px" y="0px"
	 viewBox="0 0 827.23 427.44" style="enable-background:new 0 0 827.23 427.44;" xml:space="preserve">
<style type="text/css">
	.st0{fill:#27AAE1;}
	.st1{fill:#8DC63F;}
	.st2{fill:#FFFFFF;}
	.st3{fill-rule:evenodd;clip-rule:evenodd;fill:#FFFFFF;}
</style>
<path class="st0" d="M584.21,281.84c2.94-35.08,10.35-109.66,21.55-164.26c-78.46-35.3-115.71-46.18-115.71-46.18l-33.94,31.32
	l1.54-29.71l-80.31-43.65l-61.39,36.48l5.69,82.43l-50.49-13.57c-0.63-0.18-1.22-0.18-1.82-0.05l-0.15-0.22l-0.93,0.69
	c0,0-0.03,0.02-0.03,0.03c-0.04,0.02-0.04,0.02-0.05,0.04l-45.56,22.72c-0.88,0.63-1.37,1.58-1.37,2.66l15.1,121.7
	c-104.02,6.82-166.39,17.3-166.39,17.3s0,0.93,343.69,0.47c343.69-0.47,343.69-0.47,343.69-0.47S692.25,288.63,584.21,281.84z"/>
<g>
	<path class="st1" d="M93.14,407.19c-5.85,0-10.81-2.04-14.88-6.11c-4.07-4.07-6.11-9.01-6.11-14.81v-68.02h12.99v67.88
		c0,2.1,0.75,3.89,2.25,5.37c1.5,1.47,3.3,2.21,5.41,2.21c2.11,0,3.9-0.73,5.37-2.21c1.47-1.47,2.21-3.26,2.21-5.37v-67.88h13.83
		v68.02c0,5.9-2.06,10.86-6.18,14.88S98.94,407.19,93.14,407.19z"/>
	<path class="st1" d="M162.14,406.21h-36.15v-87.96h13.27v74.76h22.88V406.21z"/>
	<path class="st1" d="M188.3,385.99l-3.22,20.22h-13.81l14.95-87.96h18.25l14.74,87.96h-13.95l-3.11-20.22H188.3z M195.27,338.4
		l-4.92,34.68h9.83L195.27,338.4z"/>
	<path class="st1" d="M267.08,318.25v13.34l-24.43,61.42h24.43v13.2h-38.75v-13.28l24.5-61.41l-24.5,0.07v-13.34H267.08z"/>
	<path class="st1" d="M291.37,406.21H278.1v-87.96h13.27V406.21z"/>
	<path class="st0" d="M339.66,318.25c6.46,0,11.61,2.03,15.44,6.11c3.56,3.88,5.33,8.84,5.33,14.88v12.78
		c0,5.8-2.02,10.77-6.07,14.88c-4.05,4.12-8.95,6.18-14.71,6.18h-7.65v33.13h-13.27v-87.96H339.66z M347.6,339.45
		c0-2.29-0.69-4.14-2.07-5.55c-1.38-1.4-3.22-2.11-5.51-2.11h-8v28.15h8c2.11,0,3.9-0.75,5.37-2.24c1.47-1.5,2.21-3.3,2.21-5.41
		V339.45z"/>
	<path class="st0" d="M390.56,317.13c5.85,0,10.82,2.06,14.92,6.18c4.1,4.12,6.14,9.08,6.14,14.88v48.01
		c0,5.85-2.06,10.82-6.18,14.92c-4.12,4.1-9.08,6.14-14.88,6.14c-5.85,0-10.81-2.06-14.88-6.18c-4.07-4.12-6.11-9.08-6.11-14.88
		v-48.01c0-5.85,2.06-10.82,6.18-14.92C379.86,319.18,384.8,317.13,390.56,317.13z M397.79,337.9c0-2.11-0.74-3.89-2.21-5.37
		c-1.47-1.48-3.26-2.21-5.37-2.21s-3.91,0.74-5.41,2.21c-1.5,1.47-2.25,3.26-2.25,5.37v48.16c0,2.11,0.75,3.9,2.25,5.37
		c1.5,1.47,3.3,2.21,5.41,2.21s3.9-0.74,5.37-2.21c1.47-1.47,2.21-3.26,2.21-5.37V337.9z"/>
	<path class="st0" d="M464.96,385.15c0,5.8-2.03,10.76-6.11,14.88c-4.07,4.12-8.99,6.18-14.74,6.18h-20.85v-88.03h20.85
		c5.8,0,10.73,2.06,14.78,6.18c4.05,4.12,6.07,9.05,6.07,14.81V385.15z M436.53,393.08h8c2.11,0,3.89-0.76,5.34-2.28
		c1.45-1.52,2.17-3.31,2.17-5.37v-46.05c0-2.11-0.74-3.91-2.21-5.41c-1.47-1.5-3.24-2.25-5.3-2.25h-8V393.08z"/>
	<path class="st0" d="M497.47,407.33c-5.85,0-10.82-2.06-14.92-6.18c-4.1-4.12-6.14-9.05-6.14-14.81v-48.02
		c0-5.85,2.06-10.82,6.18-14.92c4.12-4.1,9.08-6.14,14.88-6.14c5.85,0,10.81,2.06,14.88,6.18c4.07,4.12,6.11,9.08,6.11,14.88v10.04
		H504.7v-10.32c0-2.11-0.75-3.91-2.25-5.41c-1.5-1.49-3.3-2.25-5.41-2.25c-2.11,0-3.9,0.75-5.37,2.25c-1.47,1.5-2.21,3.3-2.21,5.41
		v48.15c0,2.11,0.74,3.9,2.21,5.37c1.48,1.47,3.26,2.21,5.37,2.21c2.1,0,3.91-0.73,5.41-2.21c1.5-1.47,2.25-3.25,2.25-5.35v-17.29
		h-7.37V355.6h21.13v30.75c0,5.85-2.06,10.81-6.18,14.88C508.16,405.3,503.22,407.33,497.47,407.33z"/>
	<path class="st0" d="M550.74,317.13c5.85,0,10.82,2.06,14.92,6.18c4.1,4.12,6.14,9.08,6.14,14.88v48.01
		c0,5.85-2.06,10.82-6.17,14.92c-4.12,4.1-9.08,6.14-14.88,6.14c-5.85,0-10.81-2.06-14.88-6.18c-4.07-4.12-6.11-9.08-6.11-14.88
		v-48.01c0-5.85,2.06-10.82,6.17-14.92C540.05,319.18,544.99,317.13,550.74,317.13z M557.97,337.9c0-2.11-0.74-3.89-2.21-5.37
		c-1.47-1.48-3.26-2.21-5.37-2.21c-2.11,0-3.91,0.74-5.41,2.21c-1.5,1.47-2.25,3.26-2.25,5.37v48.16c0,2.11,0.75,3.9,2.25,5.37
		c1.49,1.47,3.3,2.21,5.41,2.21c2.1,0,3.9-0.74,5.37-2.21c1.47-1.47,2.21-3.26,2.21-5.37V337.9z"/>
	<path class="st0" d="M604.44,318.25c7.39,0,12.82,2.03,16.28,6.11c3.04,3.56,4.56,8.52,4.56,14.88v12.78
		c0,6.22-2.37,11.49-7.09,15.8l9.83,38.4h-14.35l-8.05-33.13c-0.37,0-0.77,0-1.19,0h-7.65v33.13h-13.27v-87.96H604.44z
		 M612.37,339.45c0-5.1-2.53-7.65-7.58-7.65h-8v28.15h8c2.11,0,3.9-0.75,5.37-2.24c1.48-1.5,2.21-3.3,2.21-5.41V339.45z"/>
	<path class="st0" d="M652.67,406.21H639.4v-87.96h13.27V406.21z"/>
	<path class="st0" d="M685.45,407.33c-5.85,0-10.82-2.05-14.92-6.14c-4.09-4.1-6.14-9.04-6.14-14.85v-48.02
		c0-5.85,2.06-10.82,6.18-14.92c4.12-4.1,9.08-6.14,14.88-6.14c5.85,0,10.81,2.06,14.88,6.18c4.07,4.12,6.11,9.08,6.11,14.88v10.04
		h-13.76v-10.32c0-2.11-0.75-3.91-2.25-5.41c-1.5-1.49-3.3-2.25-5.41-2.25s-3.9,0.75-5.37,2.25c-1.48,1.5-2.21,3.3-2.21,5.41v48.15
		c0,2.11,0.74,3.9,2.21,5.37c1.47,1.47,3.26,2.21,5.37,2.21s3.91-0.74,5.41-2.21c1.5-1.47,2.25-3.26,2.25-5.37v-12.14h13.76v12.29
		c0,5.85-2.06,10.81-6.18,14.88C696.14,405.3,691.21,407.33,685.45,407.33z"/>
	<path class="st0" d="M717.32,406.21v-88.03h37.77v13.34h-24.5v24.01h17.9v13.34h-17.9v24.01h24.5v13.34H717.32z"/>
</g>
<g>
	<g>
		<polygon class="st2" points="291.94,164.06 282.93,162 282.7,154.9 291.7,156.96 		"/>
		<polygon class="st2" points="305.18,166.77 296.15,164.71 295.92,157.63 304.94,159.68 		"/>
	</g>
	<g>
		<g>
			<polygon class="st2" points="292.62,184.54 283.61,182.47 283.37,175.39 292.38,177.46 			"/>
			<polygon class="st2" points="305.85,187.26 296.83,185.2 296.6,178.1 305.62,180.17 			"/>
		</g>
	</g>
	<g>
		<g>
			<polygon class="st2" points="293.29,205.04 284.29,202.96 284.05,195.86 293.06,197.94 			"/>
			<polygon class="st2" points="306.54,207.75 297.51,205.68 297.28,198.59 306.3,200.66 			"/>
		</g>
	</g>
	<g>
		<g>
			<polygon class="st2" points="293.97,225.51 284.96,223.44 284.73,216.37 293.74,218.44 			"/>
			<polygon class="st2" points="307.21,228.23 298.19,226.16 297.95,219.07 306.98,221.14 			"/>
		</g>
	</g>
	<g>
		<g>
			<polygon class="st2" points="294.65,246 285.64,243.93 285.41,236.85 294.42,238.9 			"/>
			<polygon class="st2" points="307.89,248.71 298.86,246.64 298.63,239.55 307.66,241.62 			"/>
		</g>
	</g>
	<g>
		<g>
			<polygon class="st2" points="295.33,266.5 286.32,264.42 286.08,257.33 295.1,259.4 			"/>
			<polygon class="st2" points="308.57,269.21 299.55,267.14 299.31,260.06 308.34,262.12 			"/>
		</g>
	</g>
	<g>
		<polygon class="st3" points="331.24,75.59 343.43,67.61 343.76,79.67 331.57,87.36 		"/>
		<polygon class="st3" points="332.22,110.53 344.41,103.38 344.74,115.44 332.55,122.34 		"/>
		<polygon class="st3" points="351.53,98.86 363.74,90.77 364.07,103.32 351.85,110.84 		"/>
		<polygon class="st3" points="350.61,64.94 362.83,56.15 363.15,68.61 350.93,76.91 		"/>
		<polygon class="st3" points="333.2,145.57 345.38,139.21 345.71,151.32 333.52,157.43 		"/>
		<polygon class="st3" points="352.5,135.13 364.71,127.92 365.04,140.52 352.82,147.21 		"/>
		<polygon class="st3" points="334.08,177.36 346.26,171.67 346.59,183.88 334.4,189.19 		"/>
		<polygon class="st3" points="353.38,168.08 365.6,161.62 365.92,174.21 353.7,180.21 		"/>
		<polygon class="st3" points="335.05,212.64 347.24,207.8 347.57,220.01 335.38,224.58 		"/>
		<polygon class="st3" points="354.36,204.68 366.57,198.98 366.9,211.61 354.68,216.83 		"/>
		<polygon class="st3" points="336.03,248.02 348.22,244.05 348.54,256.3 336.36,260.06 		"/>
		<polygon class="st3" points="355.33,241.38 367.55,236.5 367.88,249.24 355.65,253.57 		"/>
	</g>
	<g>
		<g>
			<polygon class="st3" points="419.29,71.29 406.88,63.3 406.88,75.68 419.29,83.41 			"/>
			<polygon class="st3" points="419.29,107.22 406.88,99.98 406.88,112.31 419.29,119.33 			"/>
			<polygon class="st3" points="399.63,95.45 387.18,87.42 387.18,100.21 399.63,107.68 			"/>
			<polygon class="st3" points="399.63,60.73 387.18,52.07 387.18,64.8 399.63,72.99 			"/>
			<polygon class="st3" points="419.29,143.12 406.88,136.59 406.88,148.93 419.29,155.24 			"/>
			<polygon class="st3" points="399.63,132.46 387.18,125.23 387.18,138.03 399.63,144.75 			"/>
			<polygon class="st3" points="419.29,175.57 406.88,169.64 406.88,182.04 419.29,187.62 			"/>
			<polygon class="st3" points="399.63,165.96 387.18,159.42 387.18,172.17 399.63,178.25 			"/>
			<polygon class="st3" points="419.29,211.46 406.88,206.29 406.88,218.65 419.29,223.57 			"/>
			<polygon class="st3" points="399.63,203.04 387.18,197.2 387.18,209.94 399.63,215.32 			"/>
			<polygon class="st3" points="419.29,247.32 406.88,242.93 406.88,255.29 419.29,259.49 			"/>
			<polygon class="st3" points="399.63,240.09 387.18,235 387.18,247.8 399.63,252.37 			"/>
		</g>
		<g>
			<polygon class="st3" points="438.69,81.92 426.27,74.37 426.27,86.36 438.69,93.66 			"/>
			<polygon class="st3" points="438.69,116.73 426.27,109.91 426.27,121.86 438.69,128.46 			"/>
			<polygon class="st3" points="438.69,151.5 426.27,145.38 426.27,157.34 438.69,163.24 			"/>
			<polygon class="st3" points="438.69,182.93 426.27,177.4 426.27,189.42 438.69,194.61 			"/>
			<polygon class="st3" points="438.69,217.7 426.27,212.92 426.27,224.89 438.69,229.43 			"/>
			<polygon class="st3" points="438.69,252.43 426.27,248.42 426.27,260.39 438.69,264.22 			"/>
		</g>
	</g>
	<g>
		<polygon class="st3" points="233.73,167.22 240.61,163.26 241.36,170.69 234.47,174.54 		"/>
		<polygon class="st3" points="235.94,188.95 242.84,185.34 243.59,192.79 236.68,196.3 		"/>
		<polygon class="st3" points="246.86,183.03 253.76,178.93 254.52,186.58 247.6,190.4 		"/>
		<polygon class="st3" points="244.77,162.19 251.65,157.82 252.41,165.41 245.51,169.54 		"/>
		<polygon class="st3" points="238.15,210.76 245.07,207.48 245.82,214.97 238.9,218.15 		"/>
		<polygon class="st3" points="249.1,205.35 256.01,201.6 256.78,209.3 249.84,212.79 		"/>
		<polygon class="st3" points="240.15,230.58 247.09,227.56 247.84,235.13 240.9,237.96 		"/>
		<polygon class="st3" points="251.13,225.65 258.06,222.19 258.82,229.88 251.88,233.12 		"/>
		<polygon class="st3" points="242.37,252.61 249.33,249.94 250.09,257.51 243.13,260.06 		"/>
		<polygon class="st3" points="253.38,248.2 260.32,245.03 261.09,252.76 254.13,255.7 		"/>
		<polygon class="st3" points="244.6,274.72 251.57,272.41 252.34,280.02 245.36,282.25 		"/>
		<polygon class="st3" points="255.63,270.86 262.59,267.99 263.36,275.78 256.39,278.38 		"/>
	</g>
	<g>
		<polygon class="st2" points="502.46,88.39 500.87,105.09 540.64,119.01 541.73,103.75 		"/>
		<polygon class="st2" points="591.53,136.83 593.51,124.02 550.76,107.29 549.63,122.16 		"/>
		<polygon class="st2" points="499.25,125.57 498.26,142.32 538.06,155.14 539.14,140.07 		"/>
		<polygon class="st2" points="587.19,170.96 588.68,158.09 548.04,143.31 546.93,158 		"/>
		<polygon class="st2" points="583.61,201.01 584.79,187.75 545.63,175.25 544.51,190.04 		"/>
		<polygon class="st2" points="496.87,159.68 496.02,176.44 535.74,187.58 536.83,172.43 		"/>
		<polygon class="st2" points="494.14,195.86 492.75,211.71 533.43,220.05 534.47,205.36 		"/>
		<polygon class="st2" points="581.43,229.9 582.32,216.62 543.2,207.41 542.11,221.84 		"/>
		<polygon class="st2" points="491.6,231.33 490.18,248.24 530.94,254.8 532.05,239.35 		"/>
		<polygon class="st2" points="579.25,262.58 580.3,248.92 540.66,241.06 539.51,256.18 		"/>
	</g>
	<g>
		<g>
			<polygon class="st3" points="453.12,120.13 481.6,96.4 481.54,108.67 453.06,129.55 			"/>
			<polygon class="st3" points="452.94,150.91 481.42,132.87 481.36,142.27 452.88,160.32 			"/>
			<polygon class="st3" points="452.59,184.11 481.07,166.02 481.01,175.46 452.53,193.48 			"/>
			<polygon class="st3" points="452.41,217.69 480.89,199.62 480.82,209.02 452.35,227.09 			"/>
			<polygon class="st3" points="452.23,251.23 480.71,236.05 480.64,245.46 452.16,260.69 			"/>
		</g>
	</g>
</g>
</svg>
