<?xml version="1.0" encoding="utf-8"?>
<!-- Generator: Adobe Illustrator 27.2.0, SVG Export Plug-In . SVG Version: 6.00 Build 0)  -->
<svg version="1.1" id="Layer_1" xmlns="http://www.w3.org/2000/svg" xmlns:xlink="http://www.w3.org/1999/xlink" x="0px" y="0px"
	 viewBox="0 0 827.23 427.44" style="enable-background:new 0 0 827.23 427.44;" xml:space="preserve">
<style type="text/css">
	.st0{fill:#27AAE1;}
	.st1{fill:#8DC63F;}
	.st2{fill:#FFFFFF;}
	.st3{fill-rule:evenodd;clip-rule:evenodd;fill:#FFFFFF;}
</style>
<path class="st0" d="M584.21,282.57c2.94-35.08,10.35-109.66,21.55-164.26C527.3,83,490.05,72.12,490.05,72.12l-33.94,31.32
	l1.54-29.71l-80.31-43.65l-61.39,36.48l5.69,82.43l-50.49-13.57c-0.63-0.18-1.22-0.18-1.82-0.05l-0.15-0.22l-0.93,0.69
	c0,0-0.03,0.02-0.03,0.03c-0.04,0.02-0.04,0.02-0.05,0.04l-45.56,22.72c-0.88,0.63-1.37,1.58-1.37,2.66l15.1,121.7
	c-104.02,6.82-166.39,17.3-166.39,17.3s0,0.93,343.69,0.47c343.69-0.47,343.69-0.47,343.69-0.47S692.25,289.37,584.21,282.57z"/>
<g>
	<g>
		<polygon class="st2" points="291.94,164.79 282.93,162.73 282.7,155.63 291.7,157.69 		"/>
		<polygon class="st2" points="305.18,167.51 296.15,165.44 295.92,158.36 304.94,160.42 		"/>
	</g>
	<g>
		<g>
			<polygon class="st2" points="292.62,185.27 283.61,183.2 283.37,176.12 292.38,178.19 			"/>
			<polygon class="st2" points="305.85,187.99 296.83,185.93 296.6,178.83 305.62,180.9 			"/>
		</g>
	</g>
	<g>
		<g>
			<polygon class="st2" points="293.29,205.77 284.29,203.69 284.05,196.59 293.06,198.68 			"/>
			<polygon class="st2" points="306.54,208.48 297.51,206.42 297.28,199.32 306.3,201.39 			"/>
		</g>
	</g>
	<g>
		<g>
			<polygon class="st2" points="293.97,226.25 284.96,224.17 284.73,217.1 293.74,219.17 			"/>
			<polygon class="st2" points="307.21,228.96 298.19,226.89 297.95,219.8 306.98,221.88 			"/>
		</g>
	</g>
	<g>
		<g>
			<polygon class="st2" points="294.65,246.74 285.64,244.67 285.41,237.58 294.42,239.63 			"/>
			<polygon class="st2" points="307.89,249.44 298.86,247.37 298.63,240.29 307.66,242.35 			"/>
		</g>
	</g>
	<g>
		<g>
			<polygon class="st2" points="295.33,267.24 286.32,265.15 286.08,258.06 295.1,260.13 			"/>
			<polygon class="st2" points="308.57,269.94 299.55,267.87 299.31,260.79 308.34,262.85 			"/>
		</g>
	</g>
	<g>
		<polygon class="st3" points="331.24,76.32 343.43,68.34 343.76,80.4 331.57,88.09 		"/>
		<polygon class="st3" points="332.22,111.26 344.41,104.12 344.74,116.17 332.55,123.07 		"/>
		<polygon class="st3" points="351.53,99.59 363.74,91.5 364.07,104.05 351.85,111.57 		"/>
		<polygon class="st3" points="350.61,65.68 362.83,56.89 363.15,69.34 350.93,77.65 		"/>
		<polygon class="st3" points="333.2,146.3 345.38,139.94 345.71,152.05 333.52,158.16 		"/>
		<polygon class="st3" points="352.5,135.87 364.71,128.65 365.04,141.25 352.82,147.94 		"/>
		<polygon class="st3" points="334.08,178.09 346.26,172.4 346.59,184.61 334.4,189.92 		"/>
		<polygon class="st3" points="353.38,168.81 365.6,162.35 365.92,174.94 353.7,180.94 		"/>
		<polygon class="st3" points="335.05,213.37 347.24,208.53 347.57,220.74 335.38,225.31 		"/>
		<polygon class="st3" points="354.36,205.42 366.57,199.71 366.9,212.34 354.68,217.56 		"/>
		<polygon class="st3" points="336.03,248.75 348.22,244.78 348.54,257.03 336.36,260.79 		"/>
		<polygon class="st3" points="355.33,242.12 367.55,237.23 367.88,249.97 355.65,254.3 		"/>
	</g>
	<g>
		<g>
			<polygon class="st3" points="419.29,72.02 406.88,64.04 406.88,76.41 419.29,84.14 			"/>
			<polygon class="st3" points="419.29,107.95 406.88,100.72 406.88,113.05 419.29,120.07 			"/>
			<polygon class="st3" points="399.63,96.18 387.18,88.15 387.18,100.94 399.63,108.42 			"/>
			<polygon class="st3" points="399.63,61.46 387.18,52.8 387.18,65.54 399.63,73.73 			"/>
			<polygon class="st3" points="419.29,143.85 406.88,137.32 406.88,149.67 419.29,155.97 			"/>
			<polygon class="st3" points="399.63,133.19 387.18,125.96 387.18,138.76 399.63,145.48 			"/>
			<polygon class="st3" points="419.29,176.3 406.88,170.37 406.88,182.77 419.29,188.36 			"/>
			<polygon class="st3" points="399.63,166.69 387.18,160.15 387.18,172.9 399.63,178.99 			"/>
			<polygon class="st3" points="419.29,212.19 406.88,207.02 406.88,219.38 419.29,224.31 			"/>
			<polygon class="st3" points="399.63,203.77 387.18,197.93 387.18,210.67 399.63,216.05 			"/>
			<polygon class="st3" points="419.29,248.05 406.88,243.67 406.88,256.02 419.29,260.22 			"/>
			<polygon class="st3" points="399.63,240.83 387.18,235.73 387.18,248.53 399.63,253.1 			"/>
		</g>
		<g>
			<polygon class="st3" points="438.69,82.65 426.27,75.1 426.27,87.09 438.69,94.39 			"/>
			<polygon class="st3" points="438.69,117.46 426.27,110.64 426.27,122.59 438.69,129.19 			"/>
			<polygon class="st3" points="438.69,152.23 426.27,146.11 426.27,158.07 438.69,163.97 			"/>
			<polygon class="st3" points="438.69,183.67 426.27,178.13 426.27,190.15 438.69,195.34 			"/>
			<polygon class="st3" points="438.69,218.43 426.27,213.65 426.27,225.62 438.69,230.17 			"/>
			<polygon class="st3" points="438.69,253.17 426.27,249.15 426.27,261.12 438.69,264.96 			"/>
		</g>
	</g>
	<g>
		<polygon class="st3" points="233.73,167.96 240.61,164 241.36,171.43 234.47,175.27 		"/>
		<polygon class="st3" points="235.94,189.68 242.84,186.07 243.59,193.52 236.68,197.03 		"/>
		<polygon class="st3" points="246.86,183.76 253.76,179.66 254.52,187.31 247.6,191.13 		"/>
		<polygon class="st3" points="244.77,162.93 251.65,158.55 252.41,166.14 245.51,170.27 		"/>
		<polygon class="st3" points="238.15,211.5 245.07,208.21 245.82,215.7 238.9,218.89 		"/>
		<polygon class="st3" points="249.1,206.09 256.01,202.33 256.78,210.03 249.84,213.52 		"/>
		<polygon class="st3" points="240.15,231.31 247.09,228.3 247.84,235.86 240.9,238.7 		"/>
		<polygon class="st3" points="251.13,226.38 258.06,222.92 258.82,230.62 251.88,233.85 		"/>
		<polygon class="st3" points="242.37,253.35 249.33,250.68 250.09,258.24 243.13,260.79 		"/>
		<polygon class="st3" points="253.38,248.94 260.32,245.76 261.09,253.49 254.13,256.43 		"/>
		<polygon class="st3" points="244.6,275.45 251.57,273.15 252.34,280.75 245.36,282.99 		"/>
		<polygon class="st3" points="255.63,271.59 262.59,268.72 263.36,276.51 256.39,279.11 		"/>
	</g>
	<g>
		<polygon class="st2" points="502.46,89.12 500.87,105.82 540.64,119.75 541.73,104.49 		"/>
		<polygon class="st2" points="591.53,137.56 593.51,124.75 550.76,108.02 549.63,122.9 		"/>
		<polygon class="st2" points="499.25,126.3 498.26,143.05 538.06,155.87 539.14,140.81 		"/>
		<polygon class="st2" points="587.19,171.69 588.68,158.82 548.04,144.04 546.93,158.73 		"/>
		<polygon class="st2" points="583.61,201.74 584.79,188.48 545.63,175.98 544.51,190.77 		"/>
		<polygon class="st2" points="496.87,160.41 496.02,177.17 535.74,188.31 536.83,173.17 		"/>
		<polygon class="st2" points="494.14,196.59 492.75,212.44 533.43,220.78 534.47,206.09 		"/>
		<polygon class="st2" points="581.43,230.64 582.32,217.35 543.2,208.14 542.11,222.57 		"/>
		<polygon class="st2" points="491.6,232.07 490.18,248.97 530.94,255.53 532.05,240.09 		"/>
		<polygon class="st2" points="579.25,263.31 580.3,249.65 540.66,241.79 539.51,256.91 		"/>
	</g>
	<g>
		<g>
			<polygon class="st3" points="453.12,120.87 481.6,97.13 481.54,109.4 453.06,130.28 			"/>
			<polygon class="st3" points="452.94,151.64 481.42,133.6 481.36,143 452.88,161.05 			"/>
			<polygon class="st3" points="452.59,184.84 481.07,166.75 481.01,176.2 452.53,194.21 			"/>
			<polygon class="st3" points="452.41,218.42 480.89,200.35 480.82,209.76 452.35,227.83 			"/>
			<polygon class="st3" points="452.23,251.96 480.71,236.78 480.64,246.19 452.16,261.43 			"/>
		</g>
	</g>
</g>
<g>
	<path class="st1" d="M137.32,403.78c-3.92-4.22-5.87-9.78-5.87-16.7v-56.31c0-0.38,0.13-0.7,0.4-0.97c0.27-0.27,0.59-0.4,0.97-0.4
		h10.49c0.38,0,0.7,0.13,0.97,0.4c0.27,0.27,0.4,0.59,0.4,0.97v57.68c0,3.04,0.76,5.51,2.28,7.41c1.52,1.9,3.53,2.85,6.04,2.85
		c2.51,0,4.52-0.95,6.04-2.85c1.52-1.9,2.28-4.37,2.28-7.41v-57.68c0-0.38,0.13-0.7,0.4-0.97c0.26-0.27,0.59-0.4,0.97-0.4h10.49
		c0.38,0,0.7,0.13,0.97,0.4c0.27,0.27,0.4,0.59,0.4,0.97v56.31c0,6.92-1.98,12.48-5.93,16.7c-3.95,4.22-9.16,6.33-15.62,6.33
		C146.46,410.1,141.23,407.99,137.32,403.78z"/>
	<path class="st1" d="M186.79,408.79c-0.27-0.27-0.4-0.59-0.4-0.97v-77.05c0-0.38,0.13-0.7,0.4-0.97c0.27-0.27,0.59-0.4,0.97-0.4
		h10.49c0.38,0,0.7,0.13,0.97,0.4c0.27,0.27,0.4,0.59,0.4,0.97v66.45c0,0.38,0.19,0.57,0.57,0.57h24.62c0.38,0,0.7,0.13,0.97,0.4
		c0.27,0.27,0.4,0.59,0.4,0.97v8.66c0,0.38-0.13,0.7-0.4,0.97c-0.27,0.27-0.59,0.4-0.97,0.4h-37.05
		C187.38,409.19,187.05,409.06,186.79,408.79z"/>
	<path class="st1" d="M269.14,407.94l-2.17-11.97c0-0.38-0.23-0.57-0.68-0.57h-16.53c-0.46,0-0.68,0.15-0.68,0.46l-2.28,12.08
		c-0.08,0.84-0.57,1.25-1.48,1.25h-10.49c-0.99,0-1.37-0.49-1.14-1.48l16.76-77.05c0.15-0.84,0.64-1.25,1.48-1.25h12.2
		c0.83,0,1.33,0.42,1.48,1.25l16.87,77.05v0.46c0,0.68-0.42,1.03-1.25,1.03h-10.6C269.71,409.19,269.22,408.77,269.14,407.94z
		 M251.93,385.02h12.42c0.46,0,0.65-0.19,0.57-0.57l-6.27-34.42c-0.08-0.23-0.19-0.34-0.34-0.34c-0.15,0-0.27,0.11-0.34,0.34
		l-6.61,34.42C251.28,384.84,251.47,385.02,251.93,385.02z"/>
	<path class="st1" d="M288.92,408.79c-0.27-0.27-0.4-0.59-0.4-0.97v-9.12c0-0.61,0.11-1.18,0.34-1.71l25.53-55.51
		c0.07-0.15,0.07-0.3,0-0.46c-0.08-0.15-0.19-0.23-0.34-0.23h-24.17c-0.38,0-0.7-0.13-0.97-0.4c-0.27-0.27-0.4-0.59-0.4-0.97v-8.66
		c0-0.38,0.13-0.7,0.4-0.97c0.27-0.27,0.59-0.4,0.97-0.4h37.39c0.38,0,0.7,0.13,0.97,0.4c0.27,0.27,0.4,0.59,0.4,0.97v9.12
		c0,0.53-0.11,1.1-0.34,1.71l-25.53,55.51c-0.08,0.15-0.08,0.3,0,0.46c0.08,0.15,0.19,0.23,0.34,0.23h24.17
		c0.38,0,0.7,0.13,0.97,0.4c0.27,0.27,0.4,0.59,0.4,0.97v8.66c0,0.38-0.13,0.7-0.4,0.97c-0.27,0.27-0.59,0.4-0.97,0.4h-37.39
		C289.51,409.19,289.18,409.06,288.92,408.79z"/>
	<path class="st1" d="M338.5,408.79c-0.27-0.27-0.4-0.59-0.4-0.97v-77.05c0-0.38,0.13-0.7,0.4-0.97c0.26-0.27,0.59-0.4,0.97-0.4
		h10.49c0.38,0,0.7,0.13,0.97,0.4c0.27,0.27,0.4,0.59,0.4,0.97v77.05c0,0.38-0.13,0.7-0.4,0.97c-0.27,0.27-0.59,0.4-0.97,0.4h-10.49
		C339.09,409.19,338.77,409.06,338.5,408.79z"/>
	<path class="st0" d="M386.94,408.79c-0.27-0.27-0.4-0.59-0.4-0.97v-77.05c0-0.38,0.13-0.7,0.4-0.97c0.27-0.27,0.59-0.4,0.97-0.4
		h10.94c0.83,0,1.37,0.34,1.6,1.03l17.67,46.39c0.15,0.23,0.3,0.34,0.46,0.34c0.15,0,0.23-0.15,0.23-0.46v-45.94
		c0-0.38,0.13-0.7,0.4-0.97c0.26-0.27,0.59-0.4,0.97-0.4h10.37c0.38,0,0.7,0.13,0.97,0.4c0.26,0.27,0.4,0.59,0.4,0.97v77.05
		c0,0.38-0.13,0.7-0.4,0.97c-0.27,0.27-0.59,0.4-0.97,0.4h-11.06c-0.84,0-1.37-0.34-1.6-1.03l-17.78-46.51
		c-0.08-0.23-0.21-0.32-0.4-0.28c-0.19,0.04-0.29,0.17-0.29,0.4l0.11,46.05c0,0.38-0.13,0.7-0.4,0.97c-0.27,0.27-0.59,0.4-0.97,0.4
		h-10.26C387.53,409.19,387.21,409.06,386.94,408.79z"/>
	<path class="st0" d="M444.62,408.79c-0.27-0.27-0.4-0.59-0.4-0.97v-77.05c0-0.38,0.13-0.7,0.4-0.97c0.26-0.27,0.59-0.4,0.97-0.4
		h10.49c0.38,0,0.7,0.13,0.97,0.4c0.27,0.27,0.4,0.59,0.4,0.97v77.05c0,0.38-0.13,0.7-0.4,0.97c-0.27,0.27-0.59,0.4-0.97,0.4h-10.49
		C445.21,409.19,444.89,409.06,444.62,408.79z"/>
	<path class="st0" d="M470.15,408.79c-0.27-0.27-0.4-0.59-0.4-0.97v-77.05c0-0.38,0.13-0.7,0.4-0.97c0.26-0.27,0.59-0.4,0.97-0.4
		h10.49c0.38,0,0.7,0.13,0.97,0.4c0.27,0.27,0.4,0.59,0.4,0.97v31.46c0,0.3,0.07,0.48,0.23,0.51c0.15,0.04,0.3-0.06,0.46-0.29
		l17.1-32.03c0.38-0.68,0.95-1.03,1.71-1.03h11.29c0.53,0,0.87,0.15,1.03,0.46c0.15,0.3,0.11,0.68-0.11,1.14l-17.1,32.03
		c-0.08,0.3-0.11,0.53-0.11,0.68l18.47,43.89c0.07,0.15,0.11,0.38,0.11,0.68c0,0.61-0.38,0.91-1.14,0.91h-11.28
		c-0.84,0-1.37-0.34-1.6-1.03l-13.45-32.94c-0.08-0.23-0.19-0.32-0.34-0.28c-0.15,0.04-0.3,0.13-0.46,0.28l-4.56,7.64
		c-0.15,0.3-0.23,0.53-0.23,0.68v24.28c0,0.38-0.13,0.7-0.4,0.97c-0.27,0.27-0.59,0.4-0.97,0.4h-10.49
		C470.74,409.19,470.42,409.06,470.15,408.79z"/>
	<path class="st0" d="M526.41,404.35c-3.88-3.84-5.81-8.79-5.81-14.88v-3.19c0-0.38,0.13-0.7,0.4-0.97c0.27-0.27,0.59-0.4,0.97-0.4
		h10.26c0.38,0,0.7,0.13,0.97,0.4c0.26,0.27,0.4,0.59,0.4,0.97v2.51c0,2.96,0.76,5.36,2.28,7.18c1.52,1.82,3.42,2.74,5.7,2.74
		c2.35,0,4.29-0.85,5.81-2.56c1.52-1.71,2.28-3.97,2.28-6.78c0-1.9-0.42-3.59-1.25-5.07c-0.84-1.48-1.99-2.87-3.48-4.16
		c-1.48-1.29-3.9-3.15-7.24-5.59c-3.8-2.74-6.86-5.17-9.18-7.3c-2.32-2.13-4.26-4.69-5.81-7.69c-1.56-3-2.34-6.48-2.34-10.43
		c0-6.31,1.9-11.32,5.7-15.05c3.8-3.72,8.78-5.59,14.93-5.59c6.38,0,11.51,1.96,15.39,5.87c3.88,3.91,5.81,9.1,5.81,15.56v2.74
		c0,0.38-0.13,0.7-0.4,0.97c-0.27,0.27-0.59,0.4-0.97,0.4h-10.37c-0.38,0-0.7-0.13-0.97-0.4c-0.27-0.27-0.4-0.59-0.4-0.97v-2.96
		c0-2.96-0.74-5.34-2.22-7.12c-1.48-1.78-3.44-2.68-5.87-2.68c-2.21,0-4.03,0.82-5.47,2.45c-1.45,1.64-2.17,3.9-2.17,6.78
		c0,2.74,0.78,5.05,2.34,6.95c1.56,1.9,4.62,4.52,9.18,7.86c4.63,3.5,8.13,6.31,10.49,8.44c2.35,2.13,4.18,4.48,5.47,7.07
		c1.29,2.58,1.94,5.66,1.94,9.23c0,6.46-1.96,11.65-5.87,15.56c-3.92,3.91-9.02,5.87-15.33,5.87
		C535.33,410.1,530.28,408.18,526.41,404.35z M533.81,321.42l-7.41-11.74c-0.15-0.46-0.23-0.72-0.23-0.8c0-0.53,0.38-0.8,1.14-0.8
		h7.64c0.76,0,1.29,0.3,1.6,0.91l4.1,7.07c0.15,0.23,0.3,0.34,0.46,0.34c0.15,0,0.27-0.11,0.34-0.34l3.99-7.07
		c0.38-0.61,0.95-0.91,1.71-0.91h7.07c0.53,0,0.89,0.17,1.08,0.51c0.19,0.34,0.13,0.74-0.17,1.2l-7.64,11.63
		c-0.38,0.61-0.91,0.91-1.6,0.91h-10.49C534.65,322.33,534.12,322.03,533.81,321.42z"/>
	<path class="st0" d="M572.74,408.79c-0.27-0.27-0.4-0.59-0.4-0.97v-77.05c0-0.38,0.13-0.7,0.4-0.97c0.26-0.27,0.59-0.4,0.97-0.4
		h10.49c0.38,0,0.7,0.13,0.97,0.4c0.27,0.27,0.4,0.59,0.4,0.97v77.05c0,0.38-0.13,0.7-0.4,0.97c-0.27,0.27-0.59,0.4-0.97,0.4h-10.49
		C573.33,409.19,573,409.06,572.74,408.79z"/>
	<path class="st0" d="M602.38,404.23c-3.92-3.91-5.87-9.1-5.87-15.56V349.8c0-6.53,1.96-11.72,5.87-15.56
		c3.91-3.84,9.1-5.76,15.56-5.76c6.54,0,11.78,1.92,15.73,5.76c3.95,3.84,5.93,9.02,5.93,15.56v1.37c0,0.38-0.13,0.72-0.4,1.03
		c-0.27,0.3-0.59,0.46-0.97,0.46l-10.6,0.46c-0.91,0-1.37-0.46-1.37-1.37v-2.85c0-2.66-0.76-4.82-2.28-6.5
		c-1.52-1.67-3.53-2.51-6.04-2.51c-2.43,0-4.41,0.84-5.93,2.51c-1.52,1.67-2.28,3.84-2.28,6.5v40.81c0,2.66,0.76,4.83,2.28,6.5
		c1.52,1.67,3.49,2.51,5.93,2.51c2.51,0,4.52-0.84,6.04-2.51c1.52-1.67,2.28-3.84,2.28-6.5v-2.85c0-0.38,0.13-0.7,0.4-0.97
		c0.27-0.27,0.59-0.4,0.97-0.4l10.6,0.46c0.38,0,0.7,0.13,0.97,0.4c0.27,0.27,0.4,0.59,0.4,0.97v1.37c0,6.46-1.98,11.65-5.93,15.56
		c-3.95,3.91-9.2,5.87-15.73,5.87C611.47,410.1,606.29,408.15,602.38,404.23z M610.87,320.74c-0.23-0.3-0.19-0.68,0.11-1.14
		l6.73-11.74c0.3-0.61,0.87-0.91,1.71-0.91h9.57c0.61,0,0.99,0.17,1.14,0.51c0.15,0.34,0.08,0.74-0.23,1.2l-8.43,11.74
		c-0.38,0.53-0.91,0.8-1.6,0.8h-7.86C611.47,321.19,611.1,321.04,610.87,320.74z"/>
	<path class="st0" d="M682.45,407.94l-2.17-11.97c0-0.38-0.23-0.57-0.68-0.57h-16.53c-0.46,0-0.68,0.15-0.68,0.46l-2.28,12.08
		c-0.08,0.84-0.57,1.25-1.48,1.25h-10.49c-0.99,0-1.37-0.49-1.14-1.48l16.76-77.05c0.15-0.84,0.65-1.25,1.48-1.25h12.2
		c0.83,0,1.33,0.42,1.48,1.25l16.87,77.05v0.46c0,0.68-0.42,1.03-1.25,1.03h-10.6C683.02,409.19,682.52,408.77,682.45,407.94z
		 M665.24,385.02h12.42c0.46,0,0.64-0.19,0.57-0.57l-6.27-34.42c-0.08-0.23-0.19-0.34-0.34-0.34c-0.15,0-0.27,0.11-0.34,0.34
		l-6.61,34.42C664.59,384.84,664.78,385.02,665.24,385.02z"/>
</g>
</svg>
